<?xml version="1.0" encoding="UTF-8" ?>
<!DOCTYPE svg PUBLIC "-//W3C//DTD SVG 1.1//EN" "http://www.w3.org/Graphics/SVG/1.1/DTD/svg11.dtd">
<svg width="512pt" height="358pt" viewBox="0 0 512 358" version="1.1" xmlns="http://www.w3.org/2000/svg">
<g id="#ffffffff">
<path fill="#ffffff" stroke="#ffffff" stroke-width="0.09375" opacity="1.00" d=" M 209.52 0.00 L 224.99 0.00 C 225.17 2.54 224.38 5.36 225.87 7.64 C 225.98 9.60 225.91 11.58 226.14 13.54 C 226.53 15.00 228.35 14.82 229.46 15.36 C 231.15 15.83 232.88 16.18 234.57 16.69 C 235.93 16.97 237.29 17.24 238.60 17.72 C 239.05 17.86 239.95 18.13 240.40 18.27 C 242.59 19.60 245.52 18.22 247.51 19.94 C 251.92 17.45 255.02 13.28 258.57 9.76 C 259.59 10.08 260.61 10.43 261.61 10.82 C 262.56 10.92 263.52 11.01 264.48 11.10 C 265.46 11.90 266.47 12.68 267.52 13.40 C 269.04 14.05 270.54 14.72 272.08 15.34 C 271.98 17.10 272.12 18.95 271.32 20.59 C 271.01 21.94 270.75 23.31 270.23 24.61 C 270.14 25.08 269.96 26.02 269.87 26.48 C 269.11 27.44 268.36 28.41 267.64 29.40 C 269.48 30.07 270.93 31.37 272.39 32.63 C 273.83 33.48 275.12 34.55 276.40 35.62 C 278.66 36.96 280.42 38.94 282.48 40.54 C 284.43 41.05 286.60 41.41 288.44 40.32 C 290.04 39.53 291.71 38.90 293.37 38.25 C 294.72 37.69 296.07 37.13 297.45 36.62 C 298.47 35.84 299.38 35.87 300.19 36.71 C 302.42 38.81 304.72 40.92 306.39 43.52 C 306.93 44.70 307.51 45.87 308.00 47.08 C 305.40 51.37 302.31 55.29 298.91 58.93 C 299.99 60.65 301.03 62.45 302.46 63.91 C 304.51 64.09 306.58 64.01 308.65 64.02 C 309.07 63.52 309.91 62.53 310.33 62.04 C 310.85 61.99 311.91 61.90 312.44 61.86 C 313.78 61.26 315.17 60.76 316.54 60.19 C 317.01 60.08 317.94 59.87 318.41 59.76 C 320.85 58.48 323.71 59.16 326.35 58.89 C 328.29 57.08 332.65 57.76 332.05 61.05 C 332.59 63.13 331.30 64.60 329.52 65.43 C 328.52 65.72 327.52 66.02 326.51 66.30 C 325.51 66.66 324.50 66.99 323.49 67.29 C 322.14 67.79 320.78 68.24 319.46 68.80 C 318.98 68.90 318.04 69.11 317.57 69.21 C 316.56 69.61 315.55 69.98 314.53 70.33 C 313.53 70.68 312.53 71.02 311.53 71.33 C 309.83 71.83 308.09 72.18 306.42 72.74 C 305.96 72.87 305.04 73.12 304.58 73.25 C 302.85 73.81 301.07 74.18 299.38 74.83 C 298.73 74.88 297.44 74.98 296.79 75.03 C 297.93 76.91 299.17 78.73 300.38 80.56 C 301.44 82.87 302.26 85.28 303.28 87.61 C 303.78 88.89 304.21 90.20 304.69 91.49 C 305.02 92.53 305.38 93.55 305.78 94.57 C 305.88 95.04 306.10 95.97 306.20 96.44 C 306.62 97.44 307.01 98.44 307.39 99.46 C 307.75 100.76 308.02 102.09 308.32 103.41 C 309.44 105.70 308.43 108.48 309.89 110.64 C 310.43 113.74 308.90 117.53 311.30 120.04 C 312.30 119.47 313.35 118.99 314.44 118.61 C 316.15 118.17 317.90 117.84 319.58 117.26 C 320.04 117.13 320.96 116.87 321.42 116.74 C 323.12 116.18 324.87 115.81 326.58 115.26 C 327.04 115.13 327.95 114.86 328.41 114.73 C 329.70 114.26 331.06 113.97 332.41 113.67 C 333.72 113.27 335.07 112.98 336.41 112.67 C 338.60 111.70 341.04 112.06 343.36 111.85 C 344.39 111.43 345.45 111.06 346.52 110.75 C 346.89 111.47 347.63 112.91 348.00 113.63 C 348.40 115.76 347.64 117.72 345.44 118.36 C 343.17 119.43 340.92 120.59 338.54 121.40 C 337.23 121.75 335.90 122.03 334.59 122.33 C 332.56 123.07 330.28 122.81 328.36 123.87 C 326.71 123.97 325.07 124.00 323.42 124.03 C 322.62 124.83 321.81 125.63 321.00 126.43 C 321.00 128.93 321.00 131.42 321.00 133.92 C 321.60 133.99 322.79 134.12 323.39 134.19 C 325.05 134.83 326.81 135.17 328.52 135.67 C 329.53 135.98 330.53 136.32 331.53 136.66 C 333.69 136.85 335.10 138.18 335.49 140.33 C 330.35 140.75 325.19 140.07 320.24 138.71 C 316.83 137.52 313.76 135.36 310.08 135.01 C 307.61 134.42 305.06 134.33 302.54 134.42 L 302.44 133.32 C 301.59 133.38 299.88 133.48 299.03 133.53 C 296.90 134.57 294.51 135.11 292.52 136.40 C 288.90 139.87 286.79 144.76 282.54 147.60 C 278.34 150.50 274.21 153.57 269.62 155.83 C 268.73 144.87 265.78 133.79 259.24 124.78 C 255.19 119.30 248.82 115.63 241.92 115.50 C 242.90 111.65 243.65 107.76 244.36 103.85 C 244.55 101.87 246.58 101.00 248.04 100.03 C 251.72 97.92 255.91 95.84 257.74 91.75 C 259.28 88.22 259.73 83.79 257.53 80.44 C 255.95 77.75 252.50 77.44 250.36 75.38 C 245.91 75.63 241.03 73.55 239.62 69.03 C 239.97 67.71 241.33 65.55 242.94 66.70 C 248.07 68.56 250.86 73.46 254.67 76.99 C 254.40 75.29 253.70 73.70 252.46 72.50 C 247.17 66.77 239.77 62.90 236.09 55.77 C 240.27 55.26 243.94 52.62 245.74 48.81 C 246.82 46.97 246.58 44.45 245.04 42.94 C 242.61 40.65 239.18 39.79 235.91 39.94 C 235.47 40.68 235.04 41.43 234.61 42.17 L 236.22 43.06 C 235.01 43.09 233.81 43.08 232.61 43.03 L 234.50 42.11 C 234.02 41.42 233.56 40.72 233.10 40.02 C 231.66 40.05 230.23 40.10 228.79 40.17 C 229.54 40.55 231.03 41.30 231.78 41.68 C 230.70 42.72 229.62 43.77 228.61 44.88 C 227.68 45.25 226.76 45.61 225.84 45.98 C 226.46 46.33 227.69 47.02 228.31 47.37 C 227.19 48.88 225.70 49.98 223.92 50.58 C 224.27 49.58 224.63 48.58 225.00 47.59 C 223.95 47.87 222.90 48.14 221.85 48.40 C 221.79 45.99 221.70 43.53 222.41 41.19 C 223.69 41.00 224.40 42.22 225.34 42.84 C 224.89 38.75 220.33 39.29 217.33 38.94 C 216.32 33.47 214.74 26.23 208.44 24.74 C 209.57 25.99 210.77 27.18 211.98 28.37 C 210.24 29.52 208.50 30.67 206.72 31.75 C 207.61 30.13 208.63 28.56 209.03 26.73 C 207.69 27.28 206.65 28.17 205.90 29.41 C 205.23 29.01 204.57 28.60 203.91 28.20 C 203.44 28.33 202.52 28.61 202.05 28.74 C 203.27 29.49 204.50 30.21 205.70 30.97 C 201.61 33.34 196.63 33.18 192.51 35.39 C 191.63 37.76 191.96 40.35 192.01 42.83 C 193.89 44.62 195.26 47.19 197.80 48.13 C 198.21 47.68 199.05 46.79 199.46 46.35 C 201.47 46.50 203.49 46.93 205.52 46.77 C 207.01 46.09 208.25 44.98 209.55 44.00 C 209.18 44.75 208.43 46.25 208.05 47.00 C 210.63 46.56 214.34 42.63 216.43 45.85 C 212.67 46.22 209.92 48.93 207.10 51.14 C 207.45 49.61 207.78 48.07 208.03 46.52 C 205.57 48.61 204.77 52.26 201.87 53.81 C 197.24 54.36 192.52 52.85 187.93 54.20 C 188.66 58.19 191.73 61.10 194.88 63.38 C 197.24 63.29 199.83 63.17 201.55 65.11 C 194.28 65.04 187.76 68.42 180.90 70.34 C 177.17 71.41 173.28 70.91 169.47 70.83 C 168.85 70.40 167.63 69.54 167.01 69.12 C 169.57 67.63 172.26 68.66 174.93 69.16 C 179.88 68.91 184.63 67.33 189.46 66.34 C 188.31 64.55 187.29 62.67 186.54 60.68 C 185.08 60.96 183.83 60.06 182.58 59.48 C 181.82 60.32 181.07 61.16 180.32 62.00 C 180.32 61.16 180.32 59.47 180.31 58.62 C 178.98 60.60 178.00 62.79 177.30 65.07 C 174.42 65.03 171.38 65.08 168.84 66.65 C 165.64 68.75 161.72 68.92 158.26 70.38 C 156.15 72.74 157.01 76.18 157.08 79.05 C 161.45 78.56 166.09 79.43 170.14 77.27 C 172.88 81.71 176.00 85.90 178.74 90.32 C 180.10 92.10 179.03 94.17 178.29 95.94 C 173.27 94.54 172.00 100.58 170.78 104.07 C 163.49 102.40 154.51 102.13 148.92 107.89 C 148.31 107.77 147.09 107.51 146.48 107.39 C 146.81 108.28 147.14 109.18 147.47 110.08 C 146.35 109.90 145.22 109.72 144.10 109.53 C 144.21 110.11 144.43 111.26 144.54 111.84 C 143.95 111.90 142.78 112.03 142.20 112.09 C 141.65 112.93 141.08 113.75 140.50 114.56 C 139.67 117.05 138.48 119.45 136.29 121.02 C 137.73 123.43 134.85 123.96 133.30 124.93 C 136.60 126.92 133.11 130.92 130.62 131.95 C 131.70 132.13 132.54 132.62 133.15 133.42 C 131.95 134.17 130.70 134.82 129.45 135.49 C 130.10 135.74 131.40 136.25 132.04 136.50 C 132.30 138.21 130.47 138.78 129.46 139.72 C 129.79 140.08 130.46 140.80 130.79 141.16 C 130.46 141.67 129.81 142.70 129.48 143.22 C 130.11 143.69 131.35 144.62 131.98 145.09 C 130.92 146.13 129.87 147.18 128.83 148.23 C 129.69 148.66 130.55 149.09 131.42 149.52 C 130.65 151.79 131.21 154.15 131.32 156.47 C 131.74 159.35 131.58 162.40 132.94 165.06 C 135.14 169.53 137.09 174.14 139.84 178.31 C 129.67 178.64 119.62 176.31 109.44 177.29 C 108.17 175.33 106.91 173.38 105.60 171.45 C 105.29 170.46 105.00 169.47 104.72 168.48 C 104.22 167.20 103.79 165.90 103.28 164.63 C 102.52 162.96 101.90 161.24 101.31 159.51 C 100.98 158.47 100.62 157.45 100.24 156.43 C 100.11 155.97 99.86 155.05 99.73 154.60 C 99.26 153.29 98.97 151.93 98.66 150.59 C 98.05 149.00 97.97 147.29 97.77 145.61 C 96.09 142.77 97.94 139.19 96.18 136.38 C 96.10 135.72 95.96 134.40 95.88 133.74 C 94.72 134.02 93.56 134.33 92.42 134.68 C 91.06 134.97 89.71 135.26 88.40 135.74 C 87.95 135.86 87.03 136.10 86.57 136.22 C 85.56 136.62 84.55 137.00 83.54 137.36 C 81.83 137.83 80.09 138.17 78.42 138.74 C 77.95 138.86 77.03 139.10 76.56 139.22 C 75.56 139.62 74.56 140.00 73.54 140.37 C 71.86 140.84 70.14 141.16 68.46 141.64 C 67.44 142.00 66.43 142.38 65.43 142.78 C 64.97 142.90 64.05 143.14 63.58 143.26 C 61.82 143.91 59.81 143.94 58.27 145.12 C 57.59 143.99 57.03 142.80 56.56 141.57 C 56.12 140.54 56.08 139.49 56.44 138.44 C 57.30 137.32 58.29 136.32 59.45 135.53 C 61.15 135.15 62.87 134.86 64.54 134.37 C 65.56 134.00 66.56 133.62 67.57 133.21 C 68.03 133.10 68.96 132.87 69.43 132.75 C 71.12 132.18 72.88 131.81 74.58 131.26 C 75.04 131.13 75.95 130.86 76.41 130.72 C 78.30 129.84 80.49 130.24 82.40 129.43 C 83.62 126.93 82.78 123.95 83.00 121.25 C 81.81 120.99 80.63 120.70 79.47 120.36 C 78.46 120.03 77.47 119.69 76.48 119.33 C 75.45 118.98 74.44 118.61 73.43 118.21 C 72.96 118.11 72.02 117.92 71.55 117.82 C 70.83 117.50 69.41 116.87 68.69 116.56 C 69.01 116.03 69.64 114.98 69.95 114.45 C 70.22 111.44 69.32 108.16 70.81 105.38 C 70.87 104.88 70.99 103.86 71.05 103.35 C 71.68 103.04 72.94 102.42 73.56 102.11 C 75.17 102.03 76.77 101.97 78.37 101.86 C 80.96 100.44 84.13 101.39 86.72 99.87 C 87.22 98.70 87.76 97.55 88.30 96.39 C 88.79 95.11 89.21 93.80 89.69 92.51 C 90.01 91.53 90.35 90.55 90.72 89.59 C 91.32 88.25 91.89 86.90 92.32 85.49 C 92.81 84.05 93.29 82.60 93.95 81.23 C 92.15 79.64 90.44 77.95 88.66 76.33 C 86.81 75.41 85.35 73.93 83.83 72.56 C 84.02 71.22 84.21 69.88 84.52 68.56 C 85.47 67.19 86.46 65.85 87.36 64.45 C 87.79 63.49 88.21 62.53 88.63 61.57 C 89.29 59.28 91.66 58.00 93.63 59.84 C 95.64 60.04 97.78 59.74 99.61 60.77 C 101.37 60.96 103.19 60.99 104.79 61.85 C 107.88 60.02 110.29 57.30 112.67 54.66 C 114.42 51.33 117.58 49.08 120.19 46.47 C 119.93 45.46 119.66 44.46 119.37 43.47 C 118.88 42.10 118.34 40.75 117.80 39.40 C 117.06 38.09 116.34 36.77 115.58 35.47 C 115.18 34.11 114.99 32.72 114.79 31.33 C 116.04 30.40 117.27 29.47 118.59 28.64 C 120.51 27.00 122.65 25.63 124.57 23.97 C 126.21 24.00 127.87 24.02 129.46 24.51 C 131.76 26.22 134.15 27.81 136.56 29.36 C 138.78 30.82 141.31 31.58 143.64 29.84 C 145.29 28.80 146.90 27.69 148.55 26.65 C 150.24 26.08 151.93 25.48 153.57 24.78 C 154.99 24.01 156.45 23.31 157.94 22.65 C 158.00 22.14 158.12 21.13 158.19 20.62 C 160.27 16.84 157.73 12.16 159.82 8.38 C 159.87 7.87 159.99 6.85 160.05 6.33 C 160.67 6.04 161.92 5.47 162.54 5.18 C 163.01 5.07 163.94 4.86 164.41 4.76 C 166.25 3.77 168.37 4.02 170.38 3.83 C 171.40 3.43 172.44 3.06 173.49 2.73 C 175.93 5.33 178.13 8.19 179.67 11.42 C 180.64 13.21 182.08 14.66 183.43 16.16 C 184.86 15.98 186.37 15.96 187.64 15.14 C 189.54 15.02 191.45 14.98 193.36 14.86 C 195.83 13.37 198.85 14.34 201.54 13.56 C 202.69 12.73 203.69 11.72 204.42 10.49 C 204.91 8.76 205.50 7.04 206.17 5.36 C 207.29 3.58 208.46 1.83 209.52 0.00 M 190.97 35.17 C 190.42 33.11 189.79 31.08 189.19 29.04 C 186.94 31.11 189.27 33.60 190.97 35.17 M 199.08 49.25 C 197.82 50.57 200.19 52.48 201.35 51.29 C 202.41 49.99 200.28 48.10 199.08 49.25 M 185.27 55.26 C 184.82 56.86 185.40 57.42 186.99 56.94 C 187.45 55.32 186.88 54.76 185.27 55.26 Z" />
<path fill="#ffffff" stroke="#ffffff" stroke-width="0.09375" opacity="1.00" d=" M 193.43 38.04 C 194.67 35.63 197.73 35.26 200.10 34.72 C 204.80 33.72 209.33 36.74 214.05 35.39 C 214.44 35.94 215.24 37.03 215.64 37.57 C 213.06 36.32 210.70 37.28 209.13 39.48 C 208.90 38.82 208.43 37.50 208.20 36.85 C 208.19 38.32 208.24 39.79 208.36 41.26 C 205.36 44.29 201.19 42.80 197.48 43.18 C 197.69 40.77 199.30 40.63 201.29 41.26 C 200.96 39.72 200.80 37.62 199.04 37.01 C 197.50 36.92 195.97 36.91 194.43 36.97 C 195.02 39.38 195.61 41.79 195.97 44.25 C 193.81 43.10 193.08 40.30 193.43 38.04 M 202.08 36.94 C 201.45 38.64 202.24 40.46 202.30 42.20 C 202.78 40.80 202.71 39.09 203.87 38.03 C 203.94 39.07 204.09 41.16 204.17 42.20 C 206.68 42.32 206.99 39.74 207.41 37.89 C 206.05 36.52 203.78 35.82 202.08 36.94 Z" />
<path fill="#ffffff" stroke="#ffffff" stroke-width="0.09375" opacity="1.00" d=" M 213.12 39.15 C 216.09 37.49 213.44 42.40 213.12 39.15 Z" />
<path fill="#ffffff" stroke="#ffffff" stroke-width="0.09375" opacity="1.00" d=" M 219.57 40.35 C 221.98 40.79 218.80 44.13 217.45 42.88 C 216.85 41.62 218.44 40.42 219.57 40.35 Z" />
<path fill="#ffffff" stroke="#ffffff" stroke-width="0.09375" opacity="1.00" d=" M 229.47 45.07 C 230.17 43.40 234.15 43.77 233.79 45.77 C 232.53 46.43 230.27 46.39 229.47 45.07 Z" />
<path fill="#ffffff" stroke="#ffffff" stroke-width="0.09375" opacity="1.00" d=" M 214.77 54.14 C 215.46 51.36 218.56 50.71 221.01 51.24 C 219.22 52.75 217.11 53.84 214.77 54.14 Z" />
<path fill="#ffffff" stroke="#ffffff" stroke-width="0.09375" opacity="1.00" d=" M 221.22 67.27 C 224.35 65.11 226.62 61.83 230.04 60.08 C 232.22 59.90 233.64 61.96 235.61 62.57 C 235.45 63.43 235.15 65.14 235.00 66.00 C 235.45 65.53 236.36 64.60 236.81 64.13 C 237.90 64.95 239.86 67.95 236.99 67.72 C 231.75 68.74 231.45 75.83 226.98 78.11 C 223.43 79.93 219.71 81.55 215.81 82.43 C 213.50 83.06 212.41 79.77 210.03 80.20 C 211.97 85.25 218.15 85.08 221.10 88.94 C 219.53 89.53 217.92 89.96 216.37 90.57 C 214.82 91.96 216.38 93.75 217.00 95.17 C 217.99 94.78 218.98 94.39 219.97 94.00 C 221.81 95.08 222.99 96.83 223.11 98.99 C 223.57 101.56 225.36 105.46 222.41 107.05 C 222.61 105.30 222.83 103.56 223.07 101.83 C 222.42 103.27 221.47 103.76 220.23 103.29 C 220.97 105.33 220.71 107.46 220.17 109.51 C 215.09 107.91 211.52 103.60 207.92 99.94 C 201.08 95.65 195.03 90.27 188.83 85.12 C 190.05 81.52 190.72 77.78 190.67 73.98 C 191.46 71.41 193.66 69.31 196.00 68.09 C 199.82 66.93 201.19 71.97 204.50 72.70 C 210.58 74.17 216.48 70.75 221.22 67.27 M 210.59 74.76 C 211.74 76.79 212.62 79.04 214.25 80.75 C 216.88 81.30 219.51 79.98 221.92 79.01 C 224.36 77.70 227.44 76.54 228.33 73.63 C 226.53 74.37 224.88 75.48 223.00 76.02 C 220.17 76.19 218.81 73.39 217.69 71.30 C 215.28 72.38 212.94 73.58 210.59 74.76 M 210.29 98.82 C 211.67 99.11 212.25 98.58 212.04 97.23 C 210.67 96.92 210.09 97.45 210.29 98.82 Z" />
<path fill="#ffffff" stroke="#ffffff" stroke-width="0.09375" opacity="1.00" d=" M 202.95 62.15 C 205.99 60.66 203.12 65.41 202.95 62.15 Z" />
<path fill="#ffffff" stroke="#ffffff" stroke-width="0.09375" opacity="1.00" d=" M 206.49 70.19 C 209.60 69.52 212.66 67.98 215.89 68.29 C 212.81 69.63 209.58 70.64 206.31 71.42 C 206.35 71.12 206.44 70.50 206.49 70.19 Z" />
<path fill="#ffffff" stroke="#ffffff" stroke-width="0.09375" opacity="1.00" d=" M 162.68 74.98 C 163.62 73.22 165.34 71.54 167.45 71.56 C 169.34 72.17 171.17 72.97 173.03 73.68 C 169.72 74.93 166.14 74.69 162.68 74.98 Z" />
<path fill="#ffffff" stroke="#ffffff" stroke-width="0.09375" opacity="1.00" d=" M 178.08 75.98 C 179.73 74.63 182.06 75.56 183.74 76.38 C 183.81 77.82 182.79 78.97 182.26 80.24 C 180.90 82.62 180.43 85.56 178.35 87.49 C 177.82 86.47 177.29 85.46 176.77 84.44 C 173.77 83.57 172.64 80.44 171.66 77.81 C 173.92 78.15 175.29 79.82 176.17 81.74 C 176.39 79.75 176.25 77.27 178.08 75.98 Z" />
<path fill="#ffffff" stroke="#ffffff" stroke-width="0.09375" opacity="1.00" d=" M 234.58 83.02 C 236.67 79.86 241.23 78.34 244.95 78.12 C 247.72 79.89 249.35 82.99 250.41 86.01 C 249.48 88.15 246.37 89.29 247.13 92.02 C 247.57 94.89 247.05 97.77 245.75 100.36 C 244.02 99.53 244.37 97.41 243.83 95.89 C 242.48 90.57 238.53 86.56 234.58 83.02 Z" />
<path fill="#ffffff" stroke="#ffffff" stroke-width="0.09375" opacity="1.00" d=" M 250.81 85.22 C 250.20 81.96 253.96 81.12 255.51 78.97 C 257.80 80.65 256.00 81.86 254.32 82.97 C 256.06 84.52 257.22 86.54 258.18 88.64 C 255.14 89.91 252.23 91.71 248.90 92.04 C 248.87 91.40 248.83 90.13 248.81 89.49 C 249.54 89.69 251.00 90.08 251.73 90.28 C 251.83 89.38 252.02 87.59 252.11 86.69 C 252.69 87.51 253.26 88.33 253.83 89.15 C 254.27 87.91 255.57 86.53 254.67 85.18 C 253.59 84.11 252.03 85.15 250.81 85.22 Z" />
<path fill="#ffffff" stroke="#ffffff" stroke-width="0.09375" opacity="1.00" d=" M 181.42 90.11 C 181.92 87.88 182.18 85.41 183.90 83.73 C 183.46 85.89 183.70 88.92 181.42 90.11 Z" />
<path fill="#ffffff" stroke="#ffffff" stroke-width="0.09375" opacity="1.00" d=" M 182.60 93.03 C 183.42 91.72 185.50 93.23 184.43 94.39 C 183.57 95.50 181.69 94.17 182.60 93.03 Z" />
<path fill="#ffffff" stroke="#ffffff" stroke-width="0.09375" opacity="1.00" d=" M 193.06 94.26 C 195.70 96.00 197.12 99.14 200.00 100.53 C 202.09 101.41 203.76 103.10 204.75 105.13 C 206.17 106.81 202.85 109.13 201.81 107.22 C 198.72 103.03 195.95 98.59 193.06 94.26 Z" />
<path fill="#ffffff" stroke="#ffffff" stroke-width="0.09375" opacity="1.00" d=" M 179.53 99.77 C 180.95 98.94 184.12 98.46 184.12 100.87 C 183.65 103.90 182.85 106.92 181.52 109.70 C 179.60 110.49 177.78 108.79 176.35 107.68 C 174.44 104.81 176.90 101.18 179.53 99.77 Z" />
<path fill="#ffffff" stroke="#ffffff" stroke-width="0.09375" opacity="1.00" d=" M 188.47 102.43 C 188.98 102.37 190.01 102.25 190.52 102.19 C 191.80 104.48 194.39 105.57 194.50 108.53 L 195.86 108.07 L 195.26 109.77 L 197.07 109.41 C 195.14 111.53 196.92 113.87 198.73 115.26 C 200.30 116.27 202.24 116.88 203.21 118.61 C 206.52 123.41 209.56 128.48 211.65 133.94 C 208.14 132.01 208.04 127.18 204.84 124.88 C 206.22 128.10 208.09 131.08 209.91 134.07 C 210.40 135.43 211.64 135.83 212.97 135.57 C 213.53 136.30 214.08 137.04 214.63 137.78 C 214.04 137.77 212.86 137.75 212.26 137.74 C 213.24 139.94 214.60 142.14 214.08 144.66 C 213.54 144.23 212.45 143.37 211.90 142.95 C 210.66 147.74 211.78 153.14 215.21 156.78 C 216.69 158.50 219.01 158.96 220.89 160.10 C 222.05 160.97 223.13 163.14 224.84 161.82 C 226.57 160.48 227.99 158.68 230.19 158.06 C 230.95 161.26 232.49 164.18 233.93 167.12 C 225.33 171.76 217.45 177.69 208.51 181.69 C 207.42 182.24 206.33 182.78 205.24 183.32 C 202.14 184.55 199.22 186.28 195.92 186.93 C 190.52 190.29 183.74 189.35 177.65 189.48 C 176.67 188.65 174.21 187.49 175.96 186.19 C 184.10 180.66 187.96 171.17 190.48 162.04 C 194.25 149.83 191.92 136.74 188.25 124.80 C 187.53 121.82 184.68 119.16 186.16 115.95 C 187.40 111.52 186.50 106.68 188.47 102.43 M 201.10 119.09 L 200.73 119.81 C 201.04 120.02 201.68 120.43 201.99 120.64 L 202.35 119.93 C 202.04 119.72 201.41 119.30 201.10 119.09 Z" />
<path fill="#ffffff" stroke="#ffffff" stroke-width="0.09375" opacity="1.00" d=" M 153.25 114.24 C 157.55 111.16 163.29 110.53 168.08 112.86 C 166.55 120.56 164.29 128.22 164.47 136.15 C 164.47 137.30 163.92 138.16 162.81 138.75 C 162.39 137.18 162.47 135.37 161.23 134.13 C 160.36 136.01 159.99 138.05 159.82 140.10 C 160.33 140.20 161.35 140.41 161.86 140.51 C 161.15 141.69 160.44 142.88 159.75 144.07 C 158.38 144.02 157.02 143.97 155.66 143.91 C 155.07 146.61 155.30 149.41 156.15 152.02 C 157.55 154.15 160.39 154.50 162.48 155.68 C 165.20 156.71 167.95 159.05 171.00 157.82 C 172.49 157.20 174.44 156.70 174.97 154.95 C 176.11 152.03 177.81 149.41 179.79 147.00 C 180.84 142.82 180.30 138.30 182.18 134.30 C 183.90 136.21 184.59 138.74 185.67 141.01 C 185.80 139.35 185.89 137.64 186.85 136.21 C 186.75 139.50 189.07 143.21 187.05 146.24 C 186.41 145.00 185.74 143.79 185.03 142.60 C 184.75 147.10 187.23 151.42 186.11 155.92 C 185.14 160.51 183.88 165.05 182.31 169.48 C 180.01 174.88 174.81 178.16 170.02 181.12 C 167.90 183.20 164.78 182.56 162.14 182.21 C 159.83 181.78 157.27 181.23 155.75 179.27 C 152.38 175.33 148.40 171.82 146.02 167.13 C 140.21 156.11 138.96 142.71 142.78 130.83 C 144.70 124.54 147.38 117.83 153.25 114.24 Z" />
<path fill="#ffffff" stroke="#ffffff" stroke-width="0.09375" opacity="1.00" d=" M 223.95 113.38 C 225.06 112.74 226.10 111.89 227.37 111.61 C 228.66 113.39 228.49 115.70 228.71 117.77 C 226.61 116.95 224.84 115.49 223.95 113.38 Z" />
<path fill="#ffffff" stroke="#ffffff" stroke-width="0.09375" opacity="1.00" d=" M 170.15 128.09 C 171.27 124.51 171.61 120.10 174.78 117.65 C 176.11 119.86 177.75 122.25 177.44 124.97 C 176.93 128.15 175.47 131.07 174.05 133.93 C 172.17 132.54 169.15 130.96 170.15 128.09 Z" />
<path fill="#ffffff" stroke="#ffffff" stroke-width="0.09375" opacity="1.00" d=" M 231.23 119.95 C 232.79 118.51 235.12 119.40 236.76 120.25 C 238.25 121.62 237.74 123.89 238.14 125.66 C 240.72 124.43 243.51 122.18 246.47 123.76 C 252.14 125.18 255.30 130.42 258.03 135.13 C 261.25 140.87 261.55 147.60 262.69 153.94 C 263.01 155.39 262.80 156.86 262.43 158.28 C 261.25 158.33 260.16 158.64 259.16 159.19 C 256.45 159.80 253.71 160.31 250.95 160.55 C 247.16 160.86 243.81 162.81 240.29 164.04 C 238.56 161.02 236.87 157.97 235.50 154.78 C 238.81 152.24 242.74 149.85 247.06 149.98 C 250.10 150.04 251.09 153.86 253.96 154.33 C 256.23 154.91 259.23 153.59 259.22 150.95 C 259.62 146.35 258.77 141.50 256.45 137.48 C 254.08 134.19 249.67 133.99 246.01 134.37 C 242.57 132.63 240.21 129.31 236.65 127.74 C 239.13 134.79 248.37 137.26 250.07 144.80 C 245.68 145.34 241.42 143.89 238.15 140.96 C 237.86 139.42 237.81 137.86 237.53 136.33 C 236.10 134.48 234.59 132.68 233.13 130.86 C 231.92 129.36 229.79 128.73 228.88 127.01 C 229.03 124.54 229.60 121.89 231.23 119.95 Z" />
<path fill="#ffffff" stroke="#ffffff" stroke-width="0.09375" opacity="1.00" d=" M 183.44 128.06 C 185.97 130.01 185.51 133.89 186.65 136.59 C 186.20 136.41 185.31 136.07 184.86 135.89 C 184.73 133.22 183.57 130.73 183.44 128.06 Z" />
<path fill="#ffffff" stroke="#ffffff" stroke-width="0.09375" opacity="1.00" d=" M 167.31 134.48 C 168.92 134.00 169.47 134.55 168.93 136.13 C 167.28 136.63 166.74 136.08 167.31 134.48 Z" />
<path fill="#ffffff" stroke="#ffffff" stroke-width="0.09375" opacity="1.00" d=" M 174.47 136.19 C 176.03 135.69 176.54 136.29 176.00 137.99 C 174.45 138.45 173.94 137.85 174.47 136.19 Z" />
<path fill="#ffffff" stroke="#ffffff" stroke-width="0.09375" opacity="1.00" d=" M 164.99 139.05 C 167.56 139.21 171.05 141.99 172.61 138.67 C 175.63 140.76 171.69 143.93 169.27 144.09 L 169.86 141.89 C 167.18 143.59 165.85 141.14 164.99 139.05 Z" />
<path fill="#ffffff" stroke="#ffffff" stroke-width="0.09375" opacity="1.00" d=" M 216.91 145.28 C 217.41 145.01 218.40 144.47 218.90 144.21 C 219.77 145.64 220.46 147.17 220.90 148.79 C 218.58 149.44 217.99 146.71 216.91 145.28 Z" />
<path fill="#ffffff" stroke="#ffffff" stroke-width="0.09375" opacity="1.00" d=" M 216.19 149.14 C 219.45 149.52 214.59 152.07 216.19 149.14 Z" />
<path fill="#ffffff" stroke="#ffffff" stroke-width="0.09375" opacity="1.00" d=" M 370.42 168.50 C 374.84 167.63 379.20 166.38 383.70 165.95 C 386.04 177.44 388.35 188.94 390.70 200.43 C 374.81 203.57 358.99 207.06 343.05 209.95 C 342.64 208.05 341.60 205.97 342.19 204.07 C 348.04 202.33 354.05 205.18 360.03 204.39 C 367.56 203.39 375.89 202.16 381.47 196.45 C 384.07 193.91 383.67 189.10 380.16 187.58 C 373.22 184.44 365.43 186.57 358.14 186.32 C 356.62 186.23 352.85 185.38 354.98 183.28 C 360.42 179.45 367.77 179.19 374.13 180.28 C 375.87 178.43 377.67 176.61 379.07 174.48 C 370.79 171.66 361.93 173.40 353.88 176.10 C 349.88 177.82 345.52 180.52 344.51 185.08 C 343.98 188.34 347.13 190.83 350.04 191.31 C 357.17 192.27 364.42 190.80 371.53 191.65 C 373.83 191.91 373.13 194.79 371.50 195.48 C 365.89 198.47 359.03 198.58 352.96 197.08 C 350.65 199.49 348.83 204.12 344.69 202.82 C 345.05 200.55 347.17 199.62 348.86 198.50 C 347.43 198.71 345.98 198.87 344.60 199.31 C 345.47 201.30 344.52 203.61 342.10 203.30 C 341.89 203.03 341.46 202.48 341.24 202.21 C 340.77 197.55 338.87 193.08 339.16 188.35 C 337.23 184.42 336.22 179.58 337.18 175.22 C 348.13 172.86 359.14 170.76 370.10 168.46 C 369.88 169.20 369.43 170.69 369.21 171.44 C 369.76 170.52 370.17 169.54 370.42 168.50 Z" />
<path fill="#ffffff" stroke="#ffffff" stroke-width="0.09375" opacity="1.00" d=" M 325.83 176.72 C 328.00 176.19 330.23 175.83 332.45 176.27 C 334.77 187.70 337.01 199.16 339.46 210.58 C 338.35 210.96 337.26 211.37 336.11 211.58 C 318.71 214.99 301.36 218.70 283.93 221.97 C 283.48 219.88 283.08 217.77 282.56 215.69 C 282.99 214.61 283.22 213.31 284.41 212.82 C 285.15 213.86 285.39 215.69 286.64 216.21 C 288.01 215.02 289.59 214.33 291.43 214.53 C 291.39 214.04 291.30 213.06 291.26 212.57 C 295.74 213.78 300.24 215.31 304.96 215.02 C 312.75 214.41 320.82 212.22 326.68 206.78 C 330.06 203.57 332.72 198.74 331.30 193.98 C 329.90 189.81 325.89 187.19 321.86 185.95 C 312.77 183.14 302.61 184.67 294.39 189.32 C 290.22 192.10 286.04 195.84 284.96 200.95 C 284.50 205.15 286.76 209.37 290.16 211.79 C 288.99 212.60 287.53 212.61 286.18 212.86 C 286.66 212.35 287.62 211.34 288.09 210.83 C 286.67 210.18 285.15 209.23 283.51 210.04 C 283.48 211.29 282.95 212.19 281.94 212.76 L 282.57 210.65 C 281.71 209.97 281.21 209.10 281.07 208.04 C 279.73 200.96 278.02 193.96 276.94 186.84 C 287.52 184.27 298.26 182.41 308.92 180.21 C 310.18 179.74 311.45 180.29 312.66 180.65 C 316.53 177.86 321.39 177.90 325.83 176.72 Z" />
<path fill="#ffffff" stroke="#ffffff" stroke-width="0.09375" opacity="1.00" d=" M 100.53 180.78 C 101.12 180.49 102.31 179.93 102.91 179.64 C 98.68 184.48 93.73 188.64 88.64 192.53 C 87.22 192.92 85.78 193.26 84.39 193.77 C 83.46 193.92 82.54 194.07 81.61 194.22 C 79.77 195.25 77.63 194.96 75.62 195.15 C 73.78 197.16 72.46 195.02 71.46 193.53 C 71.04 191.74 70.97 189.90 70.91 188.08 C 72.82 187.96 74.85 188.24 76.59 187.25 C 77.05 187.13 77.97 186.90 78.43 186.78 C 79.43 186.38 80.44 186.00 81.46 185.64 C 83.16 185.16 84.89 184.82 86.57 184.31 C 87.92 184.02 89.29 183.76 90.59 183.28 C 91.05 183.14 91.95 182.86 92.41 182.72 C 93.71 182.25 95.06 181.97 96.41 181.66 C 97.74 181.21 99.14 180.99 100.53 180.78 Z" />
<path fill="#ffffff" stroke="#ffffff" stroke-width="0.09375" opacity="1.00" d=" M 229.15 195.91 C 244.05 192.85 258.94 189.69 273.90 186.94 C 276.26 198.87 278.88 210.75 281.02 222.72 C 265.63 225.63 250.37 229.29 234.92 231.92 C 232.69 221.10 230.53 210.27 228.30 199.46 C 228.24 198.31 227.32 196.11 229.15 195.91 M 238.44 201.62 C 235.13 204.71 232.46 209.51 234.12 214.10 C 235.73 219.32 241.08 222.09 246.09 223.15 C 256.55 225.06 267.94 222.30 275.95 215.19 C 272.64 214.54 269.34 213.79 265.99 213.34 C 262.54 215.31 257.93 218.25 254.09 215.99 C 254.12 215.66 254.18 215.00 254.21 214.67 L 254.84 214.08 C 254.24 214.18 253.05 214.37 252.45 214.46 C 252.37 214.84 252.20 215.61 252.12 215.99 L 251.74 216.56 C 248.55 216.04 245.13 214.48 244.08 211.17 C 243.54 207.08 246.78 203.81 250.17 202.16 C 254.10 199.87 258.78 200.08 263.15 200.34 C 266.24 199.28 268.87 197.09 271.36 195.01 C 260.29 191.31 247.21 193.86 238.44 201.62 Z" />
<path fill="#ffffff" stroke="#ffffff" stroke-width="0.09375" opacity="1.00" d=" M 302.78 192.80 C 306.52 190.89 310.92 190.91 314.97 191.62 C 318.22 192.29 320.87 194.89 321.53 198.16 C 319.72 205.72 310.92 208.81 303.92 207.92 C 300.03 207.90 295.58 205.20 295.35 201.01 C 295.66 196.90 299.32 194.31 302.78 192.80 Z" />
<path fill="#ffffff" stroke="#ffffff" stroke-width="0.09375" opacity="1.00" d=" M 196.96 205.12 C 206.93 203.24 216.82 200.80 226.86 199.31 C 229.02 210.33 231.32 221.31 233.53 232.32 C 217.30 235.37 201.19 239.15 184.91 241.90 C 182.96 232.66 181.18 223.38 179.24 214.13 C 179.07 212.42 178.09 210.69 178.56 208.98 C 182.41 207.86 186.39 207.04 190.41 207.09 C 192.55 206.29 194.68 205.45 196.96 205.12 M 211.61 204.67 C 212.93 211.42 214.30 218.16 215.72 224.89 C 213.10 229.12 207.78 230.83 203.02 230.40 C 200.99 230.12 198.62 229.52 197.63 227.53 C 196.21 221.20 194.98 214.82 193.85 208.44 C 190.37 208.79 187.01 209.83 183.51 210.02 C 184.21 216.05 185.78 221.94 186.83 227.91 C 187.10 230.73 189.09 233.02 191.49 234.35 C 199.14 237.59 208.00 236.60 215.54 233.54 C 220.16 231.22 225.86 227.81 225.96 221.98 C 224.88 215.46 223.32 209.02 222.11 202.51 C 218.62 203.29 215.10 203.93 211.61 204.67 Z" />
<path fill="#ffffff" stroke="#ffffff" stroke-width="0.09375" opacity="1.00" d=" M 160.93 210.11 C 165.44 209.55 169.83 207.60 174.43 208.23 C 176.72 219.78 179.23 231.29 181.35 242.88 C 162.88 246.61 144.44 250.47 125.93 253.97 C 125.47 250.84 123.65 247.31 126.01 244.50 C 126.81 245.81 127.59 247.12 128.35 248.45 C 129.77 247.13 131.44 246.25 133.44 246.53 C 133.39 246.04 133.30 245.06 133.25 244.57 C 137.75 245.77 142.26 247.32 147.00 247.02 C 155.02 246.39 163.37 244.05 169.23 238.24 C 172.00 235.32 174.33 231.30 173.52 227.14 C 172.87 222.95 169.20 219.99 165.44 218.53 C 157.91 215.62 149.34 216.06 141.83 218.81 C 136.12 220.75 130.82 224.64 127.96 230.02 C 125.84 233.68 127.16 238.26 129.61 241.39 C 130.19 242.36 131.84 242.85 131.79 244.09 C 130.77 244.80 129.43 244.51 128.26 244.70 L 130.10 242.84 C 128.69 242.19 127.17 241.24 125.53 242.03 C 125.44 243.24 124.92 244.19 123.95 244.87 L 124.53 242.63 C 123.70 241.93 123.21 241.06 123.06 240.03 C 122.37 235.82 121.29 231.70 120.60 227.50 C 119.87 227.62 118.42 227.86 117.69 227.98 C 118.40 227.75 119.81 227.30 120.51 227.07 C 119.95 224.38 119.05 221.70 119.11 218.92 C 129.90 216.07 140.99 214.25 151.95 212.10 C 155.31 213.58 157.70 210.20 160.93 210.11 Z" />
<path fill="#ffffff" stroke="#ffffff" stroke-width="0.09375" opacity="1.00" d=" M 389.04 216.30 C 402.46 213.28 416.00 210.82 429.47 208.03 C 429.65 209.34 429.84 210.64 430.04 211.95 C 428.20 212.38 426.33 212.74 424.47 213.09 C 425.07 214.79 425.64 216.50 426.13 218.24 L 427.48 218.00 C 427.41 217.44 427.26 216.30 427.18 215.73 C 427.94 216.61 428.70 217.48 429.48 218.36 C 429.46 218.71 429.43 219.41 429.41 219.76 C 429.86 219.42 430.75 218.73 431.19 218.39 C 432.56 221.60 432.58 225.19 433.51 228.54 L 432.14 228.49 C 432.53 228.71 433.31 229.15 433.70 229.37 C 434.69 233.52 435.55 237.71 436.10 241.94 C 422.78 244.61 409.50 247.62 396.09 249.86 C 394.20 242.14 392.72 234.31 391.22 226.50 C 393.41 226.81 394.18 225.97 393.51 223.96 C 394.07 224.00 395.20 224.09 395.76 224.13 C 395.34 224.52 394.49 225.30 394.07 225.69 L 395.51 226.40 C 397.24 233.30 398.35 240.35 399.89 247.30 C 411.18 244.95 422.50 242.75 433.80 240.42 C 433.39 238.34 432.96 236.26 432.46 234.21 C 424.63 235.56 416.91 237.41 409.10 238.82 C 407.30 231.35 405.90 223.78 404.39 216.25 C 400.95 216.78 397.57 217.59 394.13 218.10 C 394.78 220.16 394.65 222.65 392.22 223.43 C 391.07 221.08 389.21 219.03 389.04 216.30 M 423.25 219.23 C 423.82 219.84 423.82 219.84 423.25 219.23 Z" />
<path fill="#ffffff" stroke="#ffffff" stroke-width="0.09375" opacity="1.00" d=" M 332.57 224.77 C 350.20 220.98 367.89 217.58 385.56 214.04 C 387.93 226.17 390.79 238.23 392.72 250.44 C 377.59 253.48 362.46 256.49 347.37 259.64 C 346.38 259.10 345.47 258.36 344.34 258.23 C 344.76 258.84 345.20 259.45 345.67 260.04 C 343.82 260.34 341.97 260.66 340.13 260.95 C 339.62 258.98 339.17 257.00 338.66 255.04 C 339.99 253.46 341.71 252.54 343.86 252.86 C 343.37 254.40 342.92 255.96 342.43 257.51 C 346.00 255.84 350.06 255.89 353.70 254.49 C 355.25 252.89 354.81 249.86 356.85 248.73 C 361.96 247.37 367.24 246.74 372.35 245.37 C 374.04 246.76 375.51 248.39 376.93 250.05 C 380.76 249.22 384.61 248.48 388.49 247.84 C 380.58 239.44 372.75 230.96 364.97 222.44 C 361.58 222.79 358.27 223.68 354.89 224.08 C 352.27 229.54 350.50 235.34 348.42 241.01 C 347.58 243.06 347.22 245.48 345.39 246.94 C 345.97 248.52 345.24 249.92 344.31 251.16 C 344.17 250.24 343.91 248.41 343.77 247.49 C 342.71 248.35 341.86 249.43 341.52 250.78 C 340.86 250.84 339.52 250.98 338.85 251.05 C 340.00 250.38 341.46 247.62 339.05 247.78 C 338.59 247.79 337.66 247.79 337.20 247.80 C 335.67 240.12 334.10 232.45 332.57 224.77 Z" />
<path fill="#ffffff" stroke="#ffffff" stroke-width="0.09375" opacity="1.00" d=" M 429.23 214.11 C 432.16 212.49 429.48 217.39 429.23 214.11 Z" />
<path fill="#ffffff" stroke="#ffffff" stroke-width="0.09375" opacity="1.00" d=" M 78.04 229.31 C 91.41 226.20 104.97 223.97 118.36 220.95 C 118.59 222.28 118.84 223.60 119.07 224.93 C 117.22 225.38 115.34 225.74 113.47 226.10 C 114.07 227.78 114.64 229.48 115.12 231.20 L 116.47 231.06 C 116.41 230.46 116.27 229.27 116.21 228.67 C 116.90 229.52 117.58 230.38 118.27 231.24 C 118.37 231.71 118.58 232.65 118.68 233.12 L 118.87 231.41 C 119.31 231.61 120.19 232.00 120.63 232.20 C 121.88 239.82 124.07 247.27 125.10 254.94 C 111.79 257.63 98.52 260.58 85.14 262.87 C 83.16 255.17 81.75 247.32 80.21 239.52 C 82.45 239.83 83.21 238.98 82.51 236.98 C 83.08 237.01 84.21 237.09 84.77 237.13 C 84.34 237.51 83.48 238.28 83.05 238.66 L 84.50 239.39 C 86.25 246.29 87.34 253.35 88.89 260.31 C 100.18 257.93 111.51 255.77 122.81 253.42 C 122.39 251.33 121.97 249.26 121.46 247.20 C 113.63 248.56 105.90 250.44 98.06 251.81 C 96.34 244.33 94.89 236.78 93.38 229.25 C 89.92 229.78 86.51 230.59 83.05 231.13 C 83.22 231.92 83.55 233.50 83.72 234.29 C 82.95 235.07 82.12 235.77 81.22 236.40 C 80.06 234.07 78.20 232.03 78.04 229.31 M 112.25 232.14 C 112.75 232.81 112.75 232.81 112.25 232.14 Z" />
<path fill="#ffffff" stroke="#ffffff" stroke-width="0.09375" opacity="1.00" d=" M 147.52 223.74 C 150.77 222.97 154.23 223.00 157.49 223.75 C 160.58 224.65 163.77 227.46 163.20 230.96 C 162.00 236.01 156.81 238.71 152.12 239.73 C 147.90 240.17 142.85 240.58 139.53 237.38 C 137.74 235.88 136.68 233.23 137.84 231.03 C 139.35 226.97 143.74 225.10 147.52 223.74 Z" />
<path fill="#ffffff" stroke="#ffffff" stroke-width="0.09375" opacity="1.00" d=" M 300.08 232.45 C 310.09 230.45 320.02 227.94 330.14 226.59 C 331.08 234.49 333.73 242.12 334.40 250.02 C 333.55 250.21 331.83 250.58 330.97 250.76 C 331.57 247.53 332.27 243.86 330.12 241.02 C 325.81 234.59 317.24 233.43 310.09 233.70 C 302.61 234.55 295.33 236.57 287.93 237.90 C 289.98 247.66 291.91 257.44 293.93 267.21 C 302.11 265.24 310.67 264.47 318.53 261.32 C 323.23 259.27 327.74 256.13 330.19 251.50 C 331.96 250.97 333.69 251.50 335.32 252.24 C 334.68 253.29 333.78 254.12 332.83 254.88 C 333.46 254.65 334.71 254.20 335.34 253.98 C 335.95 256.52 336.55 259.07 336.95 261.66 C 323.34 264.72 309.61 267.23 295.96 270.11 C 294.23 270.51 292.46 270.68 290.69 270.78 C 288.72 259.03 285.91 247.42 283.82 235.69 C 288.66 234.72 293.48 233.62 298.35 232.74 C 299.07 233.14 299.79 233.53 300.52 233.93 L 300.08 232.45 Z" />
<path fill="#ffffff" stroke="#ffffff" stroke-width="0.09375" opacity="1.00" d=" M 361.30 232.78 C 364.50 234.86 366.53 238.22 368.99 241.05 C 365.36 241.97 361.70 242.81 357.95 243.06 C 358.80 239.55 359.92 236.11 361.30 232.78 Z" />
<path fill="#ffffff" stroke="#ffffff" stroke-width="0.09375" opacity="1.00" d=" M 253.57 242.66 C 262.92 240.80 272.24 238.74 281.63 237.09 C 284.17 248.48 286.23 259.99 288.75 271.39 C 279.47 273.88 269.92 275.27 260.54 277.36 C 255.91 278.08 251.38 279.43 246.71 279.81 C 246.39 277.71 246.04 275.61 245.66 273.53 C 246.67 273.34 247.69 273.16 248.71 272.99 C 248.86 273.72 249.16 275.17 249.31 275.90 C 253.29 275.95 256.96 274.25 260.86 273.77 C 269.35 271.95 277.89 270.38 286.36 268.46 C 285.86 266.43 285.40 264.39 285.07 262.33 C 276.60 263.68 268.30 266.03 259.79 267.09 C 260.52 266.37 261.26 265.66 262.00 264.95 C 261.12 265.08 259.36 265.33 258.47 265.45 C 258.29 264.81 257.91 263.54 257.72 262.91 C 264.06 261.06 270.69 260.05 277.19 258.76 C 276.78 256.66 276.38 254.56 276.02 252.46 C 269.99 253.42 264.07 254.94 258.05 255.89 C 255.41 256.73 256.11 252.98 255.31 251.56 C 264.02 249.45 272.87 247.98 281.64 246.10 C 281.29 243.87 280.88 241.65 280.43 239.44 C 268.14 241.99 255.84 244.51 243.52 246.93 C 244.10 250.30 245.47 253.69 244.56 257.14 C 246.91 258.90 246.27 262.72 247.25 265.30 C 247.80 266.93 245.29 266.82 244.30 266.99 C 243.02 259.79 241.16 252.71 240.08 245.47 C 243.01 244.72 245.98 243.89 249.05 244.18 C 250.31 243.12 252.05 243.10 253.57 242.66 Z" />
<path fill="#ffffff" stroke="#ffffff" stroke-width="0.09375" opacity="1.00" d=" M 299.55 242.68 C 303.69 240.63 308.53 240.10 313.10 240.48 C 316.93 240.92 321.49 243.50 321.23 247.90 C 320.34 253.55 314.38 256.13 309.41 257.25 C 307.26 257.51 304.99 258.66 302.87 258.07 C 301.37 253.03 300.89 247.75 299.55 242.68 Z" />
<path fill="#ffffff" stroke="#ffffff" stroke-width="0.09375" opacity="1.00" d=" M 227.21 249.58 C 230.73 248.72 234.28 248.01 237.86 247.46 C 238.98 252.08 240.08 256.74 240.50 261.48 C 241.48 264.59 242.12 267.79 242.68 271.00 C 242.39 271.18 241.83 271.53 241.54 271.70 C 241.37 271.24 241.04 270.32 240.88 269.86 C 238.88 270.71 236.87 271.55 234.86 272.37 C 235.14 272.83 235.70 273.76 235.97 274.23 C 237.74 273.04 239.83 272.66 241.24 274.61 C 240.09 275.18 239.17 276.00 238.47 277.06 C 239.39 276.95 241.23 276.74 242.15 276.63 C 244.58 275.43 245.74 280.56 243.03 280.57 C 228.99 283.38 215.00 286.44 200.91 288.97 C 198.71 278.13 196.63 267.26 194.22 256.46 C 198.19 255.06 202.42 254.66 206.52 253.72 C 213.21 252.40 219.85 250.68 226.67 250.08 L 226.86 252.88 C 217.18 253.08 207.87 256.42 198.33 257.84 C 200.16 267.67 202.28 277.44 204.15 287.26 C 207.61 286.44 211.12 285.78 214.63 285.13 C 214.04 281.65 213.34 278.20 212.56 274.76 C 219.25 272.66 226.82 273.06 232.80 268.99 C 235.56 267.24 237.65 264.42 238.22 261.17 C 237.71 255.84 231.93 253.21 227.18 252.84 C 227.19 252.02 227.20 250.40 227.21 249.58 M 224.36 274.32 C 223.50 274.22 221.27 275.28 222.81 276.11 C 223.92 276.53 225.02 276.61 226.13 276.33 C 226.98 275.28 225.42 274.00 224.36 274.32 Z" />
<path fill="#ffffff" stroke="#ffffff" stroke-width="0.09375" opacity="1.00" d=" M 166.86 259.72 C 169.00 259.18 171.22 258.86 173.42 259.22 C 175.70 270.79 178.26 282.30 180.33 293.90 C 161.87 297.59 143.43 301.47 124.93 304.97 C 124.48 302.09 122.99 299.04 124.39 296.22 C 126.31 295.44 126.31 298.48 127.30 299.46 C 128.75 298.19 130.40 297.25 132.39 297.54 C 132.39 297.04 132.37 296.03 132.36 295.53 C 141.60 299.21 152.14 298.54 161.04 294.26 C 166.18 291.76 171.06 287.64 172.48 281.88 C 173.47 277.71 171.21 273.41 167.69 271.21 C 162.20 267.74 155.42 267.16 149.10 267.78 C 142.49 268.78 135.68 270.99 130.90 275.88 C 128.09 278.49 125.59 282.06 125.89 286.06 C 126.45 289.50 128.21 292.77 131.15 294.74 C 130.01 295.64 128.53 295.61 127.17 295.85 C 127.65 295.35 128.61 294.34 129.10 293.84 C 127.68 293.18 126.16 292.23 124.52 293.04 C 124.48 294.28 123.94 295.19 122.92 295.77 L 123.57 293.65 C 122.70 292.95 122.19 292.05 122.06 290.96 C 120.71 283.91 119.04 276.93 117.92 269.85 C 128.49 267.25 139.24 265.43 149.90 263.22 C 151.17 262.77 152.45 263.26 153.65 263.65 C 157.53 260.86 162.40 260.89 166.86 259.72 Z" />
<path fill="#ffffff" stroke="#ffffff" stroke-width="0.09375" opacity="1.00" d=" M 209.99 261.06 C 215.88 260.31 222.04 257.02 227.79 259.97 C 226.98 260.53 226.16 261.07 225.33 261.60 C 226.44 261.65 227.54 261.71 228.65 261.77 C 227.87 263.55 227.15 265.83 225.08 266.52 C 220.75 268.08 216.10 268.39 211.66 269.52 C 211.06 266.71 210.42 263.90 209.99 261.06 Z" />
<path fill="#ffffff" stroke="#ffffff" stroke-width="0.09375" opacity="1.00" d=" M 245.16 270.20 C 246.05 268.86 249.06 270.01 247.65 271.56 C 246.78 272.92 243.85 271.75 245.16 270.20 Z" />
<path fill="#ffffff" stroke="#ffffff" stroke-width="0.09375" opacity="1.00" d=" M 85.30 276.43 C 95.22 274.38 105.09 271.98 115.12 270.58 C 116.05 278.48 118.83 286.14 119.31 294.03 C 118.48 294.22 116.82 294.60 115.99 294.78 C 116.57 291.54 117.28 287.85 115.11 285.00 C 110.80 278.59 102.26 277.43 95.13 277.70 C 87.63 278.54 80.33 280.57 72.91 281.90 C 75.00 291.65 76.89 301.45 78.92 311.21 C 88.46 308.81 98.77 308.42 107.42 303.34 C 110.56 301.38 113.44 298.85 115.17 295.52 C 116.94 294.97 118.68 295.49 120.31 296.24 C 119.76 297.30 118.94 298.07 117.86 298.56 C 118.49 298.48 119.75 298.32 120.38 298.24 C 121.07 300.67 121.54 303.16 121.95 305.64 C 111.20 308.14 100.33 310.09 89.53 312.37 C 84.90 313.08 80.40 314.56 75.71 314.82 C 73.84 302.99 70.65 291.38 68.99 279.52 C 73.83 278.85 78.53 277.53 83.35 276.77 C 84.31 277.26 85.88 278.77 85.30 276.43 Z" />
<path fill="#ffffff" stroke="#ffffff" stroke-width="0.09375" opacity="1.00" d=" M 136.48 283.10 C 137.64 278.22 142.77 275.95 147.11 274.58 C 152.80 273.35 161.22 274.22 162.52 281.20 C 161.14 287.24 154.85 290.58 149.07 290.95 C 145.68 291.05 141.80 291.21 139.07 288.83 C 137.34 287.54 135.90 285.33 136.48 283.10 Z" />
<path fill="#ffffff" stroke="#ffffff" stroke-width="0.09375" opacity="1.00" d=" M 84.54 286.66 C 88.70 284.66 93.52 284.10 98.09 284.48 C 101.92 284.92 106.52 287.50 106.21 291.92 C 105.29 297.73 99.05 300.25 93.97 301.35 C 91.96 301.54 89.86 302.69 87.89 302.07 C 86.36 297.04 85.90 291.74 84.54 286.66 Z" />
</g>
<g id="#090806ff">
<path fill="#090806" stroke="#090806" stroke-width="0.09375" opacity="1.00" d=" M 208.44 24.74 C 214.74 26.23 216.32 33.47 217.33 38.94 C 220.33 39.29 224.89 38.75 225.34 42.84 C 224.40 42.22 223.69 41.00 222.41 41.19 C 221.70 43.53 221.79 45.99 221.85 48.40 C 222.90 48.14 223.95 47.87 225.00 47.59 C 224.63 48.58 224.27 49.58 223.92 50.58 C 225.70 49.98 227.19 48.88 228.31 47.37 C 227.69 47.02 226.46 46.33 225.84 45.98 C 226.76 45.61 227.68 45.25 228.61 44.88 C 229.62 43.77 230.70 42.72 231.78 41.68 C 231.03 41.30 229.54 40.55 228.79 40.17 C 230.23 40.10 231.66 40.05 233.10 40.02 C 233.56 40.72 234.02 41.42 234.50 42.11 L 232.61 43.03 C 233.81 43.08 235.01 43.09 236.22 43.06 L 234.61 42.17 C 235.04 41.43 235.47 40.68 235.91 39.94 C 239.18 39.79 242.61 40.65 245.04 42.94 C 246.58 44.45 246.82 46.97 245.74 48.81 C 243.94 52.62 240.27 55.26 236.09 55.77 C 239.77 62.90 247.17 66.77 252.46 72.50 C 253.70 73.70 254.40 75.29 254.67 76.99 C 250.86 73.46 248.07 68.56 242.94 66.70 C 241.33 65.55 239.97 67.71 239.62 69.03 C 241.03 73.55 245.91 75.63 250.36 75.38 C 252.50 77.44 255.95 77.75 257.53 80.44 C 259.73 83.79 259.28 88.22 257.74 91.75 C 255.91 95.84 251.72 97.92 248.04 100.03 C 246.58 101.00 244.55 101.87 244.36 103.85 C 243.65 107.76 242.90 111.65 241.92 115.50 C 248.82 115.63 255.19 119.30 259.24 124.78 C 265.78 133.79 268.73 144.87 269.62 155.83 C 274.21 153.57 278.34 150.50 282.54 147.60 C 286.79 144.76 288.90 139.87 292.52 136.40 C 294.51 135.11 296.90 134.57 299.03 133.53 C 299.88 133.48 301.59 133.38 302.44 133.32 L 302.54 134.42 C 305.06 134.33 307.61 134.42 310.08 135.01 C 313.76 135.36 316.83 137.52 320.24 138.71 C 325.19 140.07 330.35 140.75 335.49 140.33 C 338.04 140.14 340.57 139.74 343.06 139.14 C 346.25 144.12 346.93 151.59 353.25 153.80 C 362.83 157.67 372.24 162.52 382.63 163.80 C 385.69 159.86 386.94 155.05 387.42 150.16 C 389.88 141.05 392.81 132.05 395.56 123.02 C 395.80 123.02 396.28 123.00 396.52 123.00 C 399.31 128.97 400.85 135.49 403.97 141.30 C 407.52 136.87 409.07 131.27 411.07 126.05 C 409.40 127.32 407.72 128.56 405.99 129.73 C 408.23 122.35 410.87 115.06 414.16 108.07 C 415.87 104.40 419.54 101.35 419.05 96.95 C 419.19 93.55 418.37 89.82 420.38 86.80 C 425.28 93.46 428.20 101.27 430.70 109.08 C 434.83 122.73 437.32 136.83 438.83 151.00 C 439.21 154.97 438.55 159.08 439.78 162.96 C 441.40 168.67 445.40 173.33 447.09 179.02 C 448.30 182.70 447.74 186.64 448.50 190.41 C 449.70 196.87 452.75 202.93 456.75 208.12 C 463.72 217.08 474.94 221.43 485.78 223.47 C 494.49 225.17 503.25 222.87 512.00 223.09 L 512.00 224.42 C 503.78 229.36 494.55 232.24 485.65 235.65 C 476.11 238.95 466.63 242.43 457.01 245.50 C 457.00 250.45 458.95 255.46 457.37 260.34 C 456.44 264.84 451.43 267.67 447.07 266.83 C 443.81 265.96 441.23 263.16 440.37 259.95 C 439.81 257.28 439.54 254.56 439.14 251.87 C 431.71 252.96 426.03 258.58 423.01 265.18 C 423.00 268.20 425.88 270.85 424.93 274.07 C 423.26 276.00 420.51 276.17 418.24 276.97 C 416.94 274.22 415.43 271.55 413.29 269.37 C 413.67 272.87 414.00 276.39 414.17 279.91 C 416.96 281.19 419.93 282.03 422.98 282.40 C 423.90 288.24 419.75 293.13 419.80 298.91 C 416.94 299.58 414.02 299.94 411.09 300.12 C 410.86 302.40 411.61 305.68 408.92 306.77 C 403.36 307.47 397.72 306.57 392.15 307.14 C 390.39 307.92 391.20 310.16 390.86 311.66 C 393.85 312.57 397.09 313.33 399.46 315.51 C 403.31 320.19 401.30 328.27 395.74 330.67 C 391.23 332.64 386.18 331.82 381.42 331.87 C 380.95 329.29 380.38 326.72 379.70 324.19 C 376.36 324.05 372.73 324.18 369.96 321.98 C 365.79 319.38 364.67 314.27 363.69 309.81 C 356.67 312.71 351.77 318.65 346.22 323.56 C 344.88 324.54 345.10 326.35 344.77 327.80 C 348.55 328.21 352.30 328.91 355.97 329.90 C 355.55 331.57 355.13 333.24 354.74 334.92 C 351.87 336.37 348.98 337.77 346.08 339.15 C 346.03 340.69 345.99 342.23 345.96 343.78 C 341.79 344.86 337.49 345.32 333.34 346.49 C 329.60 347.44 325.90 348.72 322.02 349.01 C 319.41 349.29 316.80 347.82 315.28 345.77 C 315.61 342.22 316.20 338.68 316.18 335.10 C 311.31 333.13 306.11 332.29 300.91 331.80 C 301.84 329.61 302.73 327.41 303.54 325.18 C 301.05 324.66 298.56 324.17 296.05 323.77 C 294.80 326.62 293.45 329.43 291.97 332.18 C 294.37 333.05 296.89 333.67 299.21 334.80 C 301.08 335.78 300.86 338.05 301.14 339.83 C 299.67 339.70 298.21 339.58 296.74 339.46 C 297.45 341.64 298.16 343.83 298.87 346.02 C 296.96 346.80 295.08 347.78 293.01 348.06 C 287.93 348.80 283.35 344.64 278.27 346.24 C 271.99 348.62 268.03 355.10 261.26 356.47 C 258.53 357.27 255.34 356.77 253.33 354.65 C 251.30 352.41 250.18 349.54 248.81 346.89 C 250.45 344.63 251.89 342.15 253.97 340.26 C 258.34 339.68 262.65 341.82 267.01 340.73 C 271.22 339.86 275.55 340.28 279.79 339.65 C 277.64 338.73 275.41 337.45 272.98 337.86 C 269.62 338.49 266.49 340.62 262.95 339.90 C 255.83 338.72 249.49 335.03 242.80 332.52 C 243.44 330.77 243.63 328.06 246.03 327.92 C 251.39 326.97 256.60 324.83 262.11 324.92 C 263.73 326.36 264.43 328.50 264.84 330.57 C 266.01 329.78 267.20 329.02 268.39 328.25 C 264.21 325.86 260.05 322.73 255.00 322.82 C 249.53 322.39 244.53 324.94 239.44 326.48 C 232.86 328.66 225.88 328.92 219.05 329.79 C 213.72 330.53 208.51 328.86 203.24 328.46 C 198.91 328.94 196.31 333.49 192.01 333.99 C 188.60 333.66 186.39 330.65 184.11 328.44 C 180.68 329.05 177.31 329.89 173.94 330.75 C 168.98 332.06 163.78 332.17 158.86 333.70 C 155.12 334.66 151.04 336.39 147.25 334.64 C 143.10 332.39 141.32 327.67 138.08 324.43 C 136.00 327.73 133.64 330.96 130.17 332.93 C 127.54 330.51 125.02 327.96 122.02 326.00 C 110.73 328.01 99.51 332.10 87.89 330.82 C 80.67 329.32 74.60 323.78 66.96 323.93 C 54.54 324.28 43.85 331.46 32.01 334.23 C 34.23 336.14 36.96 338.64 35.82 341.92 C 34.84 346.61 29.82 348.11 26.01 349.82 C 24.21 347.38 22.43 344.93 20.61 342.50 C 16.08 342.91 10.80 344.17 6.81 341.27 C 3.55 339.09 1.31 334.75 2.82 330.89 C 4.00 327.09 7.62 324.69 8.98 321.00 C 10.10 315.02 7.07 309.50 5.39 303.96 C 8.69 302.04 12.08 300.26 15.58 298.71 C 13.74 294.35 13.38 289.44 15.08 284.98 C 10.53 282.10 4.95 282.51 0.00 280.80 L 0.00 278.44 C 2.58 275.98 6.07 273.64 9.78 274.20 C 11.49 275.29 12.93 276.72 14.45 278.05 C 16.58 273.85 19.66 270.16 23.71 267.70 C 22.44 266.32 21.18 264.94 19.91 263.56 C 21.13 261.36 23.02 258.94 25.80 259.09 C 28.50 260.36 28.48 263.85 30.19 265.97 C 31.91 267.14 34.13 266.89 36.10 267.21 C 36.54 262.73 36.97 258.24 38.10 253.88 C 38.98 250.22 39.70 246.24 38.53 242.58 C 36.54 239.30 31.92 237.87 31.42 233.61 C 30.38 227.35 36.72 223.30 41.55 220.88 C 41.90 223.03 41.86 225.30 42.70 227.34 C 44.36 229.46 46.71 230.90 48.76 232.62 C 48.15 236.68 46.22 240.30 44.77 244.08 C 45.33 247.60 48.54 250.22 48.61 253.96 C 48.54 256.32 50.16 257.92 51.80 259.37 C 53.02 256.73 54.20 254.07 55.35 251.40 C 54.52 249.62 52.62 247.76 53.51 245.64 C 55.85 243.53 59.02 243.79 61.48 245.54 C 69.65 234.22 70.41 219.82 75.05 207.04 C 77.26 200.26 83.98 196.96 88.93 192.45 L 88.64 192.53 C 93.73 188.64 98.68 184.48 102.91 179.64 C 104.92 178.47 107.08 177.48 109.44 177.29 C 119.62 176.31 129.67 178.64 139.84 178.31 C 137.09 174.14 135.14 169.53 132.94 165.06 C 131.58 162.40 131.74 159.35 131.32 156.47 C 131.21 154.15 130.65 151.79 131.42 149.52 C 130.55 149.09 129.69 148.66 128.83 148.23 C 129.87 147.18 130.92 146.13 131.98 145.09 C 131.35 144.62 130.11 143.69 129.48 143.22 C 129.81 142.70 130.46 141.67 130.79 141.16 C 130.46 140.80 129.79 140.08 129.46 139.72 C 130.47 138.78 132.30 138.21 132.04 136.50 C 131.40 136.25 130.10 135.74 129.45 135.49 C 130.70 134.82 131.95 134.17 133.15 133.42 C 132.54 132.62 131.70 132.13 130.62 131.95 C 133.11 130.92 136.60 126.92 133.30 124.93 C 134.85 123.96 137.73 123.43 136.29 121.02 C 138.48 119.45 139.67 117.05 140.50 114.56 C 141.08 113.75 141.65 112.93 142.20 112.09 C 142.78 112.03 143.95 111.90 144.54 111.84 C 144.43 111.26 144.21 110.11 144.10 109.53 C 145.22 109.72 146.35 109.90 147.47 110.08 C 147.14 109.18 146.81 108.28 146.48 107.39 C 147.09 107.51 148.31 107.77 148.92 107.89 C 154.51 102.13 163.49 102.40 170.78 104.07 C 172.00 100.58 173.27 94.54 178.29 95.94 C 179.03 94.17 180.10 92.10 178.74 90.32 C 176.00 85.90 172.88 81.71 170.14 77.27 C 166.09 79.43 161.45 78.56 157.08 79.05 C 157.01 76.18 156.15 72.74 158.26 70.38 C 161.72 68.92 165.64 68.75 168.84 66.65 C 171.38 65.08 174.42 65.03 177.30 65.07 C 178.00 62.79 178.98 60.60 180.31 58.62 C 180.32 59.47 180.32 61.16 180.32 62.00 C 181.07 61.16 181.82 60.32 182.58 59.48 C 183.83 60.06 185.08 60.96 186.54 60.68 C 187.29 62.67 188.31 64.55 189.46 66.34 C 184.63 67.33 179.88 68.91 174.93 69.16 C 172.26 68.66 169.57 67.63 167.01 69.12 C 167.63 69.54 168.85 70.40 169.47 70.83 C 173.28 70.91 177.17 71.41 180.90 70.34 C 187.76 68.42 194.28 65.04 201.55 65.11 C 199.83 63.17 197.24 63.29 194.88 63.38 C 191.73 61.10 188.66 58.19 187.93 54.20 C 192.52 52.85 197.24 54.36 201.87 53.81 C 204.77 52.26 205.57 48.61 208.03 46.52 C 207.78 48.07 207.45 49.61 207.10 51.14 C 209.92 48.93 212.67 46.22 216.43 45.85 C 214.34 42.63 210.63 46.56 208.05 47.00 C 208.43 46.25 209.18 44.75 209.55 44.00 C 208.25 44.98 207.01 46.09 205.52 46.77 C 203.49 46.93 201.47 46.50 199.46 46.35 C 199.05 46.79 198.21 47.68 197.80 48.13 C 195.26 47.19 193.89 44.62 192.01 42.83 C 191.96 40.35 191.63 37.76 192.51 35.39 C 196.63 33.18 201.61 33.34 205.70 30.97 C 204.50 30.21 203.27 29.49 202.05 28.74 C 202.52 28.61 203.44 28.33 203.91 28.20 C 204.57 28.60 205.23 29.01 205.90 29.41 C 206.65 28.17 207.69 27.28 209.03 26.73 C 208.63 28.56 207.61 30.13 206.72 31.75 C 208.50 30.67 210.24 29.52 211.98 28.37 C 210.77 27.18 209.57 25.99 208.44 24.74 M 193.43 38.04 C 193.08 40.30 193.81 43.10 195.97 44.25 C 195.61 41.79 195.02 39.38 194.43 36.97 C 195.97 36.91 197.50 36.92 199.04 37.01 C 200.80 37.62 200.96 39.72 201.29 41.26 C 199.30 40.63 197.69 40.77 197.48 43.18 C 201.19 42.80 205.36 44.29 208.36 41.26 C 208.24 39.79 208.19 38.32 208.20 36.85 C 208.43 37.50 208.90 38.82 209.13 39.48 C 210.70 37.28 213.06 36.32 215.64 37.57 C 215.24 37.03 214.44 35.94 214.05 35.39 C 209.33 36.74 204.80 33.72 200.10 34.72 C 197.73 35.26 194.67 35.63 193.43 38.04 M 213.12 39.15 C 213.44 42.40 216.09 37.49 213.12 39.15 M 219.57 40.35 C 218.44 40.42 216.85 41.62 217.45 42.88 C 218.80 44.13 221.98 40.79 219.57 40.35 M 229.47 45.07 C 230.27 46.39 232.53 46.43 233.79 45.77 C 234.15 43.77 230.17 43.40 229.47 45.07 M 214.77 54.14 C 217.11 53.84 219.22 52.75 221.01 51.24 C 218.56 50.71 215.46 51.36 214.77 54.14 M 221.22 67.27 C 216.48 70.75 210.58 74.17 204.50 72.70 C 201.19 71.97 199.82 66.93 196.00 68.09 C 193.66 69.31 191.46 71.41 190.67 73.98 C 190.72 77.78 190.05 81.52 188.83 85.12 C 195.03 90.27 201.08 95.65 207.92 99.94 C 211.52 103.60 215.09 107.91 220.17 109.51 C 220.71 107.46 220.97 105.33 220.23 103.29 C 221.47 103.76 222.42 103.27 223.07 101.83 C 222.83 103.56 222.61 105.30 222.41 107.05 C 225.36 105.46 223.57 101.56 223.11 98.99 C 222.99 96.83 221.81 95.08 219.97 94.00 C 218.98 94.39 217.99 94.78 217.00 95.17 C 216.38 93.75 214.82 91.96 216.37 90.57 C 217.92 89.96 219.53 89.53 221.10 88.94 C 218.15 85.08 211.97 85.25 210.03 80.20 C 212.41 79.77 213.50 83.06 215.81 82.43 C 219.71 81.55 223.43 79.93 226.98 78.11 C 231.45 75.83 231.75 68.74 236.99 67.72 C 239.86 67.95 237.90 64.95 236.81 64.13 C 236.36 64.60 235.45 65.53 235.00 66.00 C 235.15 65.14 235.45 63.43 235.61 62.57 C 233.64 61.96 232.22 59.90 230.04 60.08 C 226.62 61.83 224.35 65.11 221.22 67.27 M 202.95 62.15 C 203.12 65.41 205.99 60.66 202.95 62.15 M 206.49 70.19 C 206.44 70.50 206.35 71.12 206.31 71.42 C 209.58 70.64 212.81 69.63 215.89 68.29 C 212.66 67.98 209.60 69.52 206.49 70.19 M 162.68 74.98 C 166.14 74.69 169.72 74.93 173.03 73.68 C 171.17 72.97 169.34 72.17 167.45 71.56 C 165.34 71.54 163.62 73.22 162.68 74.98 M 178.08 75.98 C 176.25 77.27 176.39 79.75 176.17 81.74 C 175.29 79.82 173.92 78.15 171.66 77.81 C 172.64 80.44 173.77 83.57 176.77 84.44 C 177.29 85.46 177.82 86.47 178.35 87.49 C 180.43 85.56 180.90 82.62 182.26 80.24 C 182.79 78.97 183.81 77.82 183.74 76.38 C 182.06 75.56 179.73 74.63 178.08 75.98 M 234.58 83.02 C 238.53 86.56 242.48 90.57 243.83 95.89 C 244.37 97.41 244.02 99.53 245.75 100.36 C 247.05 97.77 247.57 94.89 247.13 92.02 C 246.37 89.29 249.48 88.15 250.41 86.01 C 249.35 82.99 247.72 79.89 244.95 78.12 C 241.23 78.34 236.67 79.86 234.58 83.02 M 250.81 85.22 C 252.03 85.15 253.59 84.11 254.67 85.18 C 255.57 86.53 254.27 87.91 253.83 89.15 C 253.26 88.33 252.69 87.51 252.11 86.69 C 252.02 87.59 251.83 89.38 251.73 90.28 C 251.00 90.08 249.54 89.69 248.81 89.49 C 248.83 90.13 248.87 91.40 248.90 92.04 C 252.23 91.71 255.14 89.91 258.18 88.64 C 257.22 86.54 256.06 84.52 254.32 82.97 C 256.00 81.86 257.80 80.65 255.51 78.97 C 253.96 81.12 250.20 81.96 250.81 85.22 M 181.42 90.11 C 183.70 88.92 183.46 85.89 183.90 83.73 C 182.18 85.41 181.92 87.88 181.42 90.11 M 182.60 93.03 C 181.69 94.17 183.57 95.50 184.43 94.39 C 185.50 93.23 183.42 91.72 182.60 93.03 M 193.06 94.26 C 195.95 98.59 198.72 103.03 201.81 107.22 C 202.85 109.13 206.17 106.81 204.75 105.13 C 203.76 103.10 202.09 101.41 200.00 100.53 C 197.12 99.14 195.70 96.00 193.06 94.26 M 179.53 99.77 C 176.90 101.18 174.44 104.81 176.35 107.68 C 177.78 108.79 179.60 110.49 181.52 109.70 C 182.85 106.92 183.65 103.90 184.12 100.87 C 184.12 98.46 180.95 98.94 179.53 99.77 M 188.47 102.43 C 186.50 106.68 187.40 111.52 186.16 115.95 C 184.68 119.16 187.53 121.82 188.25 124.80 C 191.92 136.74 194.25 149.83 190.48 162.04 C 187.96 171.17 184.10 180.66 175.96 186.19 C 174.21 187.49 176.67 188.65 177.65 189.48 C 183.74 189.35 190.52 190.29 195.92 186.93 C 199.22 186.28 202.14 184.55 205.24 183.32 C 206.33 182.78 207.42 182.24 208.51 181.69 C 217.45 177.69 225.33 171.76 233.93 167.12 C 232.49 164.18 230.95 161.26 230.19 158.06 C 227.99 158.68 226.57 160.48 224.84 161.82 C 223.13 163.14 222.05 160.97 220.89 160.10 C 219.01 158.96 216.69 158.50 215.21 156.78 C 211.78 153.14 210.66 147.74 211.90 142.95 C 212.45 143.37 213.54 144.23 214.08 144.66 C 214.60 142.14 213.24 139.94 212.26 137.74 C 212.86 137.75 214.04 137.77 214.63 137.78 C 214.08 137.04 213.53 136.30 212.97 135.57 C 211.64 135.83 210.40 135.43 209.91 134.07 C 208.09 131.08 206.22 128.10 204.84 124.88 C 208.04 127.18 208.14 132.01 211.65 133.94 C 209.56 128.48 206.52 123.41 203.21 118.61 C 202.24 116.88 200.30 116.27 198.73 115.26 C 196.92 113.87 195.14 111.53 197.07 109.41 L 195.26 109.77 L 195.86 108.07 L 194.50 108.53 C 194.39 105.57 191.80 104.48 190.52 102.19 C 190.01 102.25 188.98 102.37 188.47 102.43 M 153.25 114.24 C 147.38 117.83 144.70 124.54 142.78 130.83 C 138.96 142.71 140.21 156.11 146.02 167.13 C 148.40 171.82 152.38 175.33 155.75 179.27 C 157.27 181.23 159.83 181.78 162.14 182.21 C 164.78 182.56 167.90 183.20 170.02 181.12 C 174.81 178.16 180.01 174.88 182.31 169.48 C 183.88 165.05 185.14 160.51 186.11 155.92 C 187.23 151.42 184.75 147.10 185.03 142.60 C 185.74 143.79 186.41 145.00 187.05 146.24 C 189.07 143.21 186.75 139.50 186.85 136.21 C 185.89 137.64 185.80 139.35 185.67 141.01 C 184.59 138.74 183.90 136.21 182.18 134.30 C 180.30 138.30 180.84 142.82 179.79 147.00 C 177.81 149.41 176.11 152.03 174.97 154.95 C 174.44 156.70 172.49 157.20 171.00 157.82 C 167.95 159.05 165.20 156.71 162.48 155.68 C 160.39 154.50 157.55 154.15 156.15 152.02 C 155.30 149.41 155.07 146.61 155.66 143.91 C 157.02 143.97 158.38 144.02 159.75 144.07 C 160.44 142.88 161.15 141.69 161.86 140.51 C 161.35 140.41 160.33 140.20 159.82 140.10 C 159.99 138.05 160.36 136.01 161.23 134.13 C 162.47 135.37 162.39 137.18 162.81 138.75 C 163.92 138.16 164.47 137.30 164.47 136.15 C 164.29 128.22 166.55 120.56 168.08 112.86 C 163.29 110.53 157.55 111.16 153.25 114.24 M 223.95 113.38 C 224.84 115.49 226.61 116.95 228.71 117.77 C 228.49 115.70 228.66 113.39 227.37 111.61 C 226.10 111.89 225.06 112.74 223.95 113.38 M 170.15 128.09 C 169.15 130.96 172.17 132.54 174.05 133.93 C 175.47 131.07 176.93 128.15 177.44 124.97 C 177.75 122.25 176.11 119.86 174.78 117.65 C 171.61 120.10 171.27 124.51 170.15 128.09 M 231.23 119.95 C 229.60 121.89 229.03 124.54 228.88 127.01 C 229.79 128.73 231.92 129.36 233.13 130.86 C 234.59 132.68 236.10 134.48 237.53 136.33 C 237.81 137.86 237.86 139.42 238.15 140.96 C 241.42 143.89 245.68 145.34 250.07 144.80 C 248.37 137.26 239.13 134.79 236.65 127.74 C 240.21 129.31 242.57 132.63 246.01 134.37 C 249.67 133.99 254.08 134.19 256.45 137.48 C 258.77 141.50 259.62 146.35 259.22 150.95 C 259.23 153.59 256.23 154.91 253.96 154.33 C 251.09 153.86 250.10 150.04 247.06 149.98 C 242.74 149.85 238.81 152.24 235.50 154.78 C 236.87 157.97 238.56 161.02 240.29 164.04 C 243.81 162.81 247.16 160.86 250.95 160.55 C 253.71 160.31 256.45 159.80 259.16 159.19 C 260.16 158.64 261.25 158.33 262.43 158.28 C 262.80 156.86 263.01 155.39 262.69 153.94 C 261.55 147.60 261.25 140.87 258.03 135.13 C 255.30 130.42 252.14 125.18 246.47 123.76 C 243.51 122.18 240.72 124.43 238.14 125.66 C 237.74 123.89 238.25 121.62 236.76 120.25 C 235.12 119.40 232.79 118.51 231.23 119.95 M 183.44 128.06 C 183.57 130.73 184.73 133.22 184.86 135.89 C 185.31 136.07 186.20 136.41 186.65 136.59 C 185.51 133.89 185.97 130.01 183.44 128.06 M 167.31 134.48 C 166.74 136.08 167.28 136.63 168.93 136.13 C 169.47 134.55 168.92 134.00 167.31 134.48 M 174.47 136.19 C 173.94 137.85 174.45 138.45 176.00 137.99 C 176.54 136.29 176.03 135.69 174.47 136.19 M 164.99 139.05 C 165.85 141.14 167.18 143.59 169.86 141.89 L 169.27 144.09 C 171.69 143.93 175.63 140.76 172.61 138.67 C 171.05 141.99 167.56 139.21 164.99 139.05 M 216.91 145.28 C 217.99 146.71 218.58 149.44 220.90 148.79 C 220.46 147.17 219.77 145.64 218.90 144.21 C 218.40 144.47 217.41 145.01 216.91 145.28 M 216.19 149.14 C 214.59 152.07 219.45 149.52 216.19 149.14 M 370.42 168.50 C 370.17 169.54 369.76 170.52 369.21 171.44 C 369.43 170.69 369.88 169.20 370.10 168.46 C 359.14 170.76 348.13 172.86 337.18 175.22 C 336.22 179.58 337.23 184.42 339.16 188.35 C 338.87 193.08 340.77 197.55 341.24 202.21 C 341.46 202.48 341.89 203.03 342.10 203.30 C 344.52 203.61 345.47 201.30 344.60 199.31 C 345.98 198.87 347.43 198.71 348.86 198.50 C 347.17 199.62 345.05 200.55 344.69 202.82 C 348.83 204.12 350.65 199.49 352.96 197.08 C 359.03 198.58 365.89 198.47 371.50 195.48 C 373.13 194.79 373.83 191.91 371.53 191.65 C 364.42 190.80 357.17 192.27 350.04 191.31 C 347.13 190.83 343.98 188.34 344.51 185.08 C 345.52 180.52 349.88 177.82 353.88 176.10 C 361.93 173.40 370.79 171.66 379.07 174.48 C 377.67 176.61 375.87 178.43 374.13 180.28 C 367.77 179.19 360.42 179.45 354.98 183.28 C 352.85 185.38 356.62 186.23 358.14 186.32 C 365.43 186.57 373.22 184.44 380.16 187.58 C 383.67 189.10 384.07 193.91 381.47 196.45 C 375.89 202.16 367.56 203.39 360.03 204.39 C 354.05 205.18 348.04 202.33 342.19 204.07 C 341.60 205.97 342.64 208.05 343.05 209.95 C 358.99 207.06 374.81 203.57 390.70 200.43 C 388.35 188.94 386.04 177.44 383.70 165.95 C 379.20 166.38 374.84 167.63 370.42 168.50 M 325.83 176.72 C 321.39 177.90 316.53 177.86 312.66 180.65 C 311.45 180.29 310.18 179.74 308.92 180.21 C 298.26 182.41 287.52 184.27 276.94 186.84 C 278.02 193.96 279.73 200.96 281.07 208.04 C 281.21 209.10 281.71 209.97 282.57 210.65 L 281.94 212.76 C 282.95 212.19 283.48 211.29 283.51 210.04 C 285.15 209.23 286.67 210.18 288.09 210.83 C 287.62 211.34 286.66 212.35 286.18 212.86 C 287.53 212.61 288.99 212.60 290.16 211.79 C 286.76 209.37 284.50 205.15 284.96 200.95 C 286.04 195.84 290.22 192.10 294.39 189.32 C 302.61 184.67 312.77 183.14 321.86 185.95 C 325.89 187.19 329.90 189.81 331.30 193.98 C 332.72 198.74 330.06 203.57 326.68 206.78 C 320.82 212.22 312.75 214.41 304.96 215.02 C 300.24 215.31 295.74 213.78 291.26 212.57 C 291.30 213.06 291.39 214.04 291.43 214.53 C 289.59 214.33 288.01 215.02 286.64 216.21 C 285.39 215.69 285.15 213.86 284.41 212.82 C 283.22 213.31 282.99 214.61 282.56 215.69 C 283.08 217.77 283.48 219.88 283.93 221.97 C 301.36 218.70 318.71 214.99 336.11 211.58 C 337.26 211.37 338.35 210.96 339.46 210.58 C 337.01 199.16 334.77 187.70 332.45 176.27 C 330.23 175.83 328.00 176.19 325.83 176.72 M 229.15 195.91 C 227.32 196.11 228.24 198.31 228.30 199.46 C 230.53 210.27 232.69 221.10 234.92 231.92 C 250.37 229.29 265.63 225.63 281.02 222.72 C 278.88 210.75 276.26 198.87 273.90 186.94 C 258.94 189.69 244.05 192.85 229.15 195.91 M 302.78 192.80 C 299.32 194.31 295.66 196.90 295.35 201.01 C 295.58 205.20 300.03 207.90 303.92 207.92 C 310.92 208.81 319.72 205.72 321.53 198.16 C 320.87 194.89 318.22 192.29 314.97 191.62 C 310.92 190.91 306.52 190.89 302.78 192.80 M 196.96 205.12 C 194.68 205.45 192.55 206.29 190.41 207.09 C 186.39 207.04 182.41 207.86 178.56 208.98 C 178.09 210.69 179.07 212.42 179.24 214.13 C 181.18 223.38 182.96 232.66 184.91 241.90 C 201.19 239.15 217.30 235.37 233.53 232.32 C 231.32 221.31 229.02 210.33 226.86 199.31 C 216.82 200.80 206.93 203.24 196.96 205.12 M 160.93 210.11 C 157.70 210.20 155.31 213.58 151.95 212.10 C 140.99 214.25 129.90 216.07 119.11 218.92 C 119.05 221.70 119.95 224.38 120.51 227.07 C 119.81 227.30 118.40 227.75 117.69 227.98 C 118.42 227.86 119.87 227.62 120.60 227.50 C 121.29 231.70 122.37 235.82 123.06 240.03 C 123.21 241.06 123.70 241.93 124.53 242.63 L 123.95 244.87 C 124.92 244.19 125.44 243.24 125.53 242.03 C 127.17 241.24 128.69 242.19 130.10 242.84 L 128.26 244.70 C 129.43 244.51 130.77 244.80 131.79 244.09 C 131.84 242.85 130.19 242.36 129.61 241.39 C 127.16 238.26 125.84 233.68 127.96 230.02 C 130.82 224.64 136.12 220.75 141.83 218.81 C 149.34 216.06 157.91 215.62 165.44 218.53 C 169.20 219.99 172.87 222.95 173.52 227.14 C 174.33 231.30 172.00 235.32 169.23 238.24 C 163.37 244.05 155.02 246.39 147.00 247.02 C 142.26 247.32 137.75 245.77 133.25 244.57 C 133.30 245.06 133.39 246.04 133.44 246.53 C 131.44 246.25 129.77 247.13 128.35 248.45 C 127.59 247.12 126.81 245.81 126.01 244.50 C 123.65 247.31 125.47 250.84 125.93 253.97 C 144.44 250.47 162.88 246.61 181.35 242.88 C 179.23 231.29 176.72 219.78 174.43 208.23 C 169.83 207.60 165.44 209.55 160.93 210.11 M 389.04 216.30 C 389.21 219.03 391.07 221.08 392.22 223.43 C 394.65 222.65 394.78 220.16 394.13 218.10 C 397.57 217.59 400.95 216.78 404.39 216.25 C 405.90 223.78 407.30 231.35 409.10 238.82 C 416.91 237.41 424.63 235.56 432.46 234.21 C 432.96 236.26 433.39 238.34 433.80 240.42 C 422.50 242.75 411.18 244.95 399.89 247.30 C 398.35 240.35 397.24 233.30 395.51 226.40 L 394.07 225.69 C 394.49 225.30 395.34 224.52 395.76 224.13 C 395.20 224.09 394.07 224.00 393.51 223.96 C 394.18 225.97 393.41 226.81 391.22 226.50 C 392.72 234.31 394.20 242.14 396.09 249.86 C 409.50 247.62 422.78 244.61 436.10 241.94 C 435.55 237.71 434.69 233.52 433.70 229.37 C 433.31 229.15 432.53 228.71 432.14 228.49 L 433.51 228.54 C 432.58 225.19 432.56 221.60 431.19 218.39 C 430.75 218.73 429.86 219.42 429.41 219.76 C 429.43 219.41 429.46 218.71 429.48 218.36 C 428.70 217.48 427.94 216.61 427.18 215.73 C 427.26 216.30 427.41 217.44 427.48 218.00 L 426.13 218.24 C 425.64 216.50 425.07 214.79 424.47 213.09 C 426.33 212.74 428.20 212.38 430.04 211.95 C 429.84 210.64 429.65 209.34 429.47 208.03 C 416.00 210.82 402.46 213.28 389.04 216.30 M 332.57 224.77 C 334.10 232.45 335.67 240.12 337.20 247.80 C 337.66 247.79 338.59 247.79 339.05 247.78 C 341.46 247.62 340.00 250.38 338.85 251.05 C 339.52 250.98 340.86 250.84 341.52 250.78 C 341.86 249.43 342.71 248.35 343.77 247.49 C 343.91 248.41 344.17 250.24 344.31 251.16 C 345.24 249.92 345.97 248.52 345.39 246.94 C 347.22 245.48 347.58 243.06 348.42 241.01 C 350.50 235.34 352.27 229.54 354.89 224.08 C 358.27 223.68 361.58 222.79 364.97 222.44 C 372.75 230.96 380.58 239.44 388.49 247.84 C 384.61 248.48 380.76 249.22 376.93 250.05 C 375.51 248.39 374.04 246.76 372.35 245.37 C 367.24 246.74 361.96 247.37 356.85 248.73 C 354.81 249.86 355.25 252.89 353.70 254.49 C 350.06 255.89 346.00 255.84 342.43 257.51 C 342.92 255.96 343.37 254.40 343.86 252.86 C 341.71 252.54 339.99 253.46 338.66 255.04 C 339.17 257.00 339.62 258.98 340.13 260.95 C 341.97 260.66 343.82 260.34 345.67 260.04 C 345.20 259.45 344.76 258.84 344.34 258.23 C 345.47 258.36 346.38 259.10 347.37 259.64 C 362.46 256.49 377.59 253.48 392.72 250.44 C 390.79 238.23 387.93 226.17 385.56 214.04 C 367.89 217.58 350.20 220.98 332.57 224.77 M 429.23 214.11 C 429.48 217.39 432.16 212.49 429.23 214.11 M 78.04 229.31 C 78.20 232.03 80.06 234.07 81.22 236.40 C 82.12 235.77 82.95 235.07 83.72 234.29 C 83.55 233.50 83.22 231.92 83.05 231.13 C 86.51 230.59 89.92 229.78 93.38 229.25 C 94.89 236.78 96.34 244.33 98.06 251.81 C 105.90 250.44 113.63 248.56 121.46 247.20 C 121.97 249.26 122.39 251.33 122.81 253.42 C 111.51 255.77 100.18 257.93 88.89 260.31 C 87.34 253.35 86.25 246.29 84.50 239.39 L 83.05 238.66 C 83.48 238.28 84.34 237.51 84.77 237.13 C 84.21 237.09 83.08 237.01 82.51 236.98 C 83.21 238.98 82.45 239.83 80.21 239.52 C 81.75 247.32 83.16 255.17 85.14 262.87 C 98.52 260.58 111.79 257.63 125.10 254.94 C 124.07 247.27 121.88 239.82 120.63 232.20 C 120.19 232.00 119.31 231.61 118.87 231.41 L 118.68 233.12 C 118.58 232.65 118.37 231.71 118.27 231.24 C 117.58 230.38 116.90 229.52 116.21 228.67 C 116.27 229.27 116.41 230.46 116.47 231.06 L 115.12 231.20 C 114.64 229.48 114.07 227.78 113.47 226.10 C 115.34 225.74 117.22 225.38 119.07 224.93 C 118.84 223.60 118.59 222.28 118.36 220.95 C 104.97 223.97 91.41 226.20 78.04 229.31 M 147.52 223.74 C 143.74 225.10 139.35 226.97 137.84 231.03 C 136.68 233.23 137.74 235.88 139.53 237.38 C 142.85 240.58 147.90 240.17 152.12 239.73 C 156.81 238.71 162.00 236.01 163.20 230.96 C 163.77 227.46 160.58 224.65 157.49 223.75 C 154.23 223.00 150.77 222.97 147.52 223.74 M 300.08 232.45 L 300.52 233.93 C 299.79 233.53 299.07 233.14 298.35 232.74 C 293.48 233.62 288.66 234.72 283.82 235.69 C 285.91 247.42 288.72 259.03 290.69 270.78 C 292.46 270.68 294.23 270.51 295.96 270.11 C 309.61 267.23 323.34 264.72 336.95 261.66 C 336.55 259.07 335.95 256.52 335.34 253.98 C 334.71 254.20 333.46 254.65 332.83 254.88 C 333.78 254.12 334.68 253.29 335.32 252.24 C 333.69 251.50 331.96 250.97 330.19 251.50 C 327.74 256.13 323.23 259.27 318.53 261.32 C 310.67 264.47 302.11 265.24 293.93 267.21 C 291.91 257.44 289.98 247.66 287.93 237.90 C 295.33 236.57 302.61 234.55 310.09 233.70 C 317.24 233.43 325.81 234.59 330.12 241.02 C 332.27 243.86 331.57 247.53 330.97 250.76 C 331.83 250.58 333.55 250.21 334.40 250.02 C 333.73 242.12 331.08 234.49 330.14 226.59 C 320.02 227.94 310.09 230.45 300.08 232.45 M 361.30 232.78 C 359.92 236.11 358.80 239.55 357.95 243.06 C 361.70 242.81 365.36 241.97 368.99 241.05 C 366.53 238.22 364.50 234.86 361.30 232.78 M 253.57 242.66 C 252.05 243.10 250.31 243.12 249.05 244.18 C 245.98 243.89 243.01 244.72 240.08 245.47 C 241.16 252.71 243.02 259.79 244.30 266.99 C 245.29 266.82 247.80 266.93 247.25 265.30 C 246.27 262.72 246.91 258.90 244.56 257.14 C 245.47 253.69 244.10 250.30 243.52 246.93 C 255.84 244.51 268.14 241.99 280.43 239.44 C 280.88 241.65 281.29 243.87 281.64 246.10 C 272.87 247.98 264.02 249.45 255.31 251.56 C 256.11 252.98 255.41 256.73 258.05 255.89 C 264.07 254.94 269.99 253.42 276.02 252.46 C 276.38 254.56 276.78 256.66 277.19 258.76 C 270.69 260.05 264.06 261.06 257.72 262.91 C 257.91 263.54 258.29 264.81 258.47 265.45 C 259.36 265.33 261.12 265.08 262.00 264.95 C 261.26 265.66 260.52 266.37 259.79 267.09 C 268.30 266.03 276.60 263.68 285.07 262.33 C 285.40 264.39 285.86 266.43 286.36 268.46 C 277.89 270.38 269.35 271.95 260.86 273.77 C 256.96 274.25 253.29 275.95 249.31 275.90 C 249.16 275.17 248.86 273.72 248.71 272.99 C 247.69 273.16 246.67 273.34 245.66 273.53 C 246.04 275.61 246.39 277.71 246.71 279.81 C 251.38 279.43 255.91 278.08 260.54 277.36 C 269.92 275.27 279.47 273.88 288.75 271.39 C 286.23 259.99 284.17 248.48 281.63 237.09 C 272.24 238.74 262.92 240.80 253.57 242.66 M 299.55 242.68 C 300.89 247.75 301.37 253.03 302.87 258.07 C 304.99 258.66 307.26 257.51 309.41 257.25 C 314.38 256.13 320.34 253.55 321.23 247.90 C 321.49 243.50 316.93 240.92 313.10 240.48 C 308.53 240.10 303.69 240.63 299.55 242.68 M 227.21 249.58 C 227.20 250.40 227.19 252.02 227.18 252.84 C 231.93 253.21 237.71 255.84 238.22 261.17 C 237.65 264.42 235.56 267.24 232.80 268.99 C 226.82 273.06 219.25 272.66 212.56 274.76 C 213.34 278.20 214.04 281.65 214.63 285.13 C 211.12 285.78 207.61 286.44 204.15 287.26 C 202.28 277.44 200.16 267.67 198.33 257.84 C 207.87 256.42 217.18 253.08 226.86 252.88 L 226.67 250.08 C 219.85 250.68 213.21 252.40 206.52 253.72 C 202.42 254.66 198.19 255.06 194.22 256.46 C 196.63 267.26 198.71 278.13 200.91 288.97 C 215.00 286.44 228.99 283.38 243.03 280.57 C 245.74 280.56 244.58 275.43 242.15 276.63 C 241.23 276.74 239.39 276.95 238.47 277.06 C 239.17 276.00 240.09 275.18 241.24 274.61 C 239.83 272.66 237.74 273.04 235.97 274.23 C 235.70 273.76 235.14 272.83 234.86 272.37 C 236.87 271.55 238.88 270.71 240.88 269.86 C 241.04 270.32 241.37 271.24 241.54 271.70 C 241.83 271.53 242.39 271.18 242.68 271.00 C 242.12 267.79 241.48 264.59 240.50 261.48 C 240.08 256.74 238.98 252.08 237.86 247.46 C 234.28 248.01 230.73 248.72 227.21 249.58 M 166.86 259.72 C 162.40 260.89 157.53 260.86 153.65 263.65 C 152.45 263.26 151.17 262.77 149.90 263.22 C 139.24 265.43 128.49 267.25 117.92 269.85 C 119.04 276.93 120.71 283.91 122.06 290.96 C 122.19 292.05 122.70 292.95 123.57 293.65 L 122.92 295.77 C 123.94 295.19 124.48 294.28 124.52 293.04 C 126.16 292.23 127.68 293.18 129.10 293.84 C 128.61 294.34 127.65 295.35 127.17 295.85 C 128.53 295.61 130.01 295.64 131.15 294.74 C 128.21 292.77 126.45 289.50 125.89 286.06 C 125.59 282.06 128.09 278.49 130.90 275.88 C 135.68 270.99 142.49 268.78 149.10 267.78 C 155.42 267.16 162.20 267.74 167.69 271.21 C 171.21 273.41 173.47 277.71 172.48 281.88 C 171.06 287.64 166.18 291.76 161.04 294.26 C 152.14 298.54 141.60 299.21 132.36 295.53 C 132.37 296.03 132.39 297.04 132.39 297.54 C 130.40 297.25 128.75 298.19 127.30 299.46 C 126.31 298.48 126.31 295.44 124.39 296.22 C 122.99 299.04 124.48 302.09 124.93 304.97 C 143.43 301.47 161.87 297.59 180.33 293.90 C 178.26 282.30 175.70 270.79 173.42 259.22 C 171.22 258.86 169.00 259.18 166.86 259.72 M 209.99 261.06 C 210.42 263.90 211.06 266.71 211.66 269.52 C 216.10 268.39 220.75 268.08 225.08 266.52 C 227.15 265.83 227.87 263.55 228.65 261.77 C 227.54 261.71 226.44 261.65 225.33 261.60 C 226.16 261.07 226.98 260.53 227.79 259.97 C 222.04 257.02 215.88 260.31 209.99 261.06 M 245.16 270.20 C 243.85 271.75 246.78 272.92 247.65 271.56 C 249.06 270.01 246.05 268.86 245.16 270.20 M 85.30 276.43 C 85.88 278.77 84.31 277.26 83.35 276.77 C 78.53 277.53 73.83 278.85 68.99 279.52 C 70.65 291.38 73.84 302.99 75.71 314.82 C 80.40 314.56 84.90 313.08 89.53 312.37 C 100.33 310.09 111.20 308.14 121.95 305.64 C 121.54 303.16 121.07 300.67 120.38 298.24 C 119.75 298.32 118.49 298.48 117.86 298.56 C 118.94 298.07 119.76 297.30 120.31 296.24 C 118.68 295.49 116.94 294.97 115.17 295.52 C 113.44 298.85 110.56 301.38 107.42 303.34 C 98.77 308.42 88.46 308.81 78.92 311.21 C 76.89 301.45 75.00 291.65 72.91 281.90 C 80.33 280.57 87.63 278.54 95.13 277.70 C 102.26 277.43 110.80 278.59 115.11 285.00 C 117.28 287.85 116.57 291.54 115.99 294.78 C 116.82 294.60 118.48 294.22 119.31 294.03 C 118.83 286.14 116.05 278.48 115.12 270.58 C 105.09 271.98 95.22 274.38 85.30 276.43 M 136.48 283.10 C 135.90 285.33 137.34 287.54 139.07 288.83 C 141.80 291.21 145.68 291.05 149.07 290.95 C 154.85 290.58 161.14 287.24 162.52 281.20 C 161.22 274.22 152.80 273.35 147.11 274.58 C 142.77 275.95 137.64 278.22 136.48 283.10 M 84.54 286.66 C 85.90 291.74 86.36 297.04 87.89 302.07 C 89.86 302.69 91.96 301.54 93.97 301.35 C 99.05 300.25 105.29 297.73 106.21 291.92 C 106.52 287.50 101.92 284.92 98.09 284.48 C 93.52 284.10 88.70 284.66 84.54 286.66 M 274.76 332.86 C 278.52 333.39 282.36 333.48 286.12 332.85 C 286.88 330.07 282.79 329.77 281.02 328.79 C 278.73 329.82 276.47 330.97 274.76 332.86 Z" />
<path fill="#090806" stroke="#090806" stroke-width="0.09375" opacity="1.00" d=" M 190.97 35.17 C 189.27 33.60 186.94 31.11 189.19 29.04 C 189.79 31.08 190.42 33.11 190.97 35.17 Z" />
<path fill="#090806" stroke="#090806" stroke-width="0.09375" opacity="1.00" d=" M 202.08 36.94 C 203.78 35.82 206.05 36.52 207.41 37.89 C 206.99 39.74 206.68 42.32 204.17 42.20 C 204.09 41.16 203.94 39.07 203.87 38.03 C 202.71 39.09 202.78 40.80 202.30 42.20 C 202.24 40.46 201.45 38.64 202.08 36.94 Z" />
<path fill="#090806" stroke="#090806" stroke-width="0.09375" opacity="1.00" d=" M 199.08 49.25 C 200.28 48.10 202.41 49.99 201.35 51.29 C 200.19 52.48 197.82 50.57 199.08 49.25 Z" />
<path fill="#090806" stroke="#090806" stroke-width="0.09375" opacity="1.00" d=" M 185.27 55.26 C 186.88 54.76 187.45 55.32 186.99 56.94 C 185.40 57.42 184.82 56.86 185.27 55.26 Z" />
<path fill="#090806" stroke="#090806" stroke-width="0.09375" opacity="1.00" d=" M 210.59 74.76 C 212.94 73.58 215.28 72.38 217.69 71.30 C 218.81 73.39 220.17 76.19 223.00 76.02 C 224.88 75.48 226.53 74.37 228.33 73.63 C 227.44 76.54 224.36 77.70 221.92 79.01 C 219.51 79.98 216.88 81.30 214.25 80.75 C 212.62 79.04 211.74 76.79 210.59 74.76 Z" />
<path fill="#090806" stroke="#090806" stroke-width="0.09375" opacity="1.00" d=" M 210.29 98.82 C 210.09 97.45 210.67 96.92 212.04 97.23 C 212.25 98.58 211.67 99.11 210.29 98.82 Z" />
<path fill="#090806" stroke="#090806" stroke-width="0.09375" opacity="1.00" d=" M 201.10 119.09 C 201.41 119.30 202.04 119.72 202.35 119.93 L 201.99 120.64 C 201.68 120.43 201.04 120.02 200.73 119.81 L 201.10 119.09 Z" />
<path fill="#090806" stroke="#090806" stroke-width="0.09375" opacity="1.00" d=" M 238.44 201.62 C 247.21 193.86 260.29 191.31 271.36 195.01 C 268.87 197.09 266.24 199.28 263.15 200.34 C 258.78 200.08 254.10 199.87 250.17 202.16 C 246.78 203.81 243.54 207.08 244.08 211.17 C 245.13 214.48 248.55 216.04 251.74 216.56 L 252.12 215.99 C 252.20 215.61 252.37 214.84 252.45 214.46 C 253.05 214.37 254.24 214.18 254.84 214.08 L 254.21 214.67 C 254.18 215.00 254.12 215.66 254.09 215.99 C 257.93 218.25 262.54 215.31 265.99 213.34 C 269.34 213.79 272.64 214.54 275.95 215.19 C 267.94 222.30 256.55 225.06 246.09 223.15 C 241.08 222.09 235.73 219.32 234.12 214.10 C 232.46 209.51 235.13 204.71 238.44 201.62 Z" />
<path fill="#090806" stroke="#090806" stroke-width="0.09375" opacity="1.00" d=" M 211.61 204.67 C 215.10 203.93 218.62 203.29 222.11 202.51 C 223.32 209.02 224.88 215.46 225.96 221.98 C 225.86 227.81 220.16 231.22 215.54 233.54 C 208.00 236.60 199.14 237.59 191.49 234.35 C 189.09 233.02 187.10 230.73 186.83 227.91 C 185.78 221.94 184.21 216.05 183.51 210.02 C 187.01 209.83 190.37 208.79 193.85 208.44 C 194.98 214.82 196.21 221.20 197.63 227.53 C 198.62 229.52 200.99 230.12 203.02 230.40 C 207.78 230.83 213.10 229.12 215.72 224.89 C 214.30 218.16 212.93 211.42 211.61 204.67 Z" />
<path fill="#090806" stroke="#090806" stroke-width="0.09375" opacity="1.00" d=" M 423.25 219.23 C 423.82 219.84 423.82 219.84 423.25 219.23 Z" />
<path fill="#090806" stroke="#090806" stroke-width="0.09375" opacity="1.00" d=" M 112.25 232.14 C 112.75 232.81 112.75 232.81 112.25 232.14 Z" />
<path fill="#090806" stroke="#090806" stroke-width="0.09375" opacity="1.00" d=" M 224.36 274.32 C 225.42 274.00 226.98 275.28 226.13 276.33 C 225.02 276.61 223.92 276.53 222.81 276.11 C 221.27 275.28 223.50 274.22 224.36 274.32 Z" />
<path fill="#090806" stroke="#090806" stroke-width="0.09375" opacity="1.00" d=" M 436.20 320.94 C 437.40 319.90 438.36 318.34 439.98 317.90 C 441.41 318.38 441.84 320.12 442.82 321.13 C 441.57 322.73 440.29 324.29 438.96 325.82 C 437.88 324.28 436.98 322.64 436.20 320.94 Z" />
<path fill="#090806" stroke="#090806" stroke-width="0.09375" opacity="1.00" d=" M 468.37 324.41 C 471.01 323.88 472.82 328.58 471.59 330.54 C 467.84 332.24 463.93 333.65 460.04 335.00 C 455.81 336.24 454.18 328.24 458.05 327.06 C 461.42 325.89 465.09 325.96 468.37 324.41 Z" />
<path fill="#090806" stroke="#090806" stroke-width="0.09375" opacity="1.00" d=" M 408.86 325.85 C 410.16 326.22 412.22 325.48 413.02 326.93 C 414.07 328.40 413.78 330.27 413.87 331.98 C 412.56 332.44 411.24 332.92 409.88 333.21 C 408.59 332.60 407.47 331.71 406.31 330.92 C 406.94 329.12 407.78 327.42 408.86 325.85 Z" />
<path fill="#090806" stroke="#090806" stroke-width="0.09375" opacity="1.00" d=" M 436.90 337.82 C 435.99 334.10 439.39 331.85 442.74 331.95 C 442.95 333.66 443.22 335.37 443.63 337.06 C 443.26 338.06 442.89 339.08 442.53 340.09 C 440.48 339.82 438.66 338.84 436.90 337.82 Z" />
<path fill="#090806" stroke="#090806" stroke-width="0.09375" opacity="1.00" d=" M 364.17 339.89 C 365.17 334.98 371.03 333.91 374.94 336.02 C 374.97 338.58 374.99 341.14 374.97 343.71 C 372.42 344.29 369.86 344.79 367.26 345.00 C 365.99 343.45 364.98 341.71 364.17 339.89 Z" />
<path fill="#090806" stroke="#090806" stroke-width="0.09375" opacity="1.00" d=" M 145.24 346.25 C 147.76 342.54 151.85 340.40 155.47 337.93 C 156.21 341.06 157.57 344.01 159.65 346.48 C 162.25 344.13 165.59 345.35 168.46 346.39 C 166.19 348.12 163.76 349.64 161.32 351.11 C 160.77 353.41 160.17 355.71 159.58 358.00 L 149.36 358.00 C 147.04 354.57 143.81 350.68 145.24 346.25 Z" />
<path fill="#090806" stroke="#090806" stroke-width="0.09375" opacity="1.00" d=" M 138.20 343.03 C 139.42 343.44 140.63 343.85 141.86 344.27 C 142.24 345.05 142.63 345.83 143.02 346.62 C 141.37 347.20 139.71 347.74 138.03 348.20 C 138.06 346.47 138.12 344.75 138.20 343.03 Z" />
</g>
</svg>
